<svg width="144" height="144" viewBox="0 0 138 137" fill="none" xmlns="http://www.w3.org/2000/svg">
<path fill-rule="evenodd" clip-rule="evenodd" d="M42.6259 4.75065C42.619 5.05942 42.4221 5.05159 42.1479 5.08058C41.8498 5.11188 41.6884 5.13074 41.3429 5.13074C41.284 5.84076 39.8976 5.9038 39.6322 6.03403C39.4725 6.11226 39.4661 6.24616 39.3129 6.38007C39.1929 6.48544 39.0447 6.54756 38.8892 6.62165C38.6592 6.73117 38.0939 6.88946 37.7788 6.88946C37.6946 7.25206 37.4389 7.3625 37.1136 7.50745C36.8344 7.63169 36.4715 7.74489 36.068 7.74489C35.839 8.1779 35.5082 8.34769 35.0501 8.53268C34.8431 8.61643 34.7869 8.59848 34.6733 8.7738C34.3467 9.27951 33.5928 9.50361 32.9791 9.50361C32.9354 9.69089 32.934 9.74795 32.8397 9.88692C32.5955 10.2463 32.1276 10.4069 31.6488 10.4069C31.6488 11.2425 31.2109 10.6798 30.9036 10.8933C30.7228 11.0184 30.8396 11.0672 30.7458 11.2623C30.6584 11.2826 30.4229 11.2918 30.3635 11.3557C30.1915 11.5407 30.5236 11.4869 30.2968 11.6659C30.2375 11.7124 29.5834 11.7855 29.4628 11.7855C29.3451 12.2917 29.0001 12.4178 28.6081 12.5945C28.478 12.6534 28.3694 12.8586 28.0649 13.0965C27.293 13.6989 26.4388 14.1751 25.7437 14.863C25.4019 15.2008 25.6949 15.112 25.194 15.3112C24.9783 15.3973 24.7556 15.614 24.6636 15.8266C24.5123 16.1763 24.6696 16.0286 24.3145 16.1906C24.0375 16.3167 23.7422 16.6199 23.7132 16.9673C22.2868 16.9673 23.3531 17.4685 22.3824 17.4905C22.3627 17.7307 22.267 17.861 22.134 18.0027C21.721 18.4449 21.6175 18.1826 21.456 18.513C21.33 18.7712 21.1197 18.9833 20.9495 19.195C20.7163 19.4853 20.449 19.7168 20.1298 19.9436C19.8405 20.1489 19.8377 19.9689 19.6997 20.3214C19.4669 20.9146 18.9908 20.8566 18.8763 21.0664C18.7903 21.2242 18.7272 21.4106 18.5708 21.5689C18.2396 21.9034 18.0658 21.6812 17.9195 22.1059C17.8275 22.3723 17.6812 22.6682 17.5 22.8744C17.4319 22.9521 17.3817 23.0023 17.3003 23.0552C17.1582 23.1477 17.1701 23.052 17.0947 23.277C16.9705 23.6474 16.6986 24.0133 16.2524 24.0505C16.2202 24.4343 15.8021 24.8972 15.3968 24.9064C15.2749 25.4301 15.211 26.2211 14.4938 26.2376C14.4878 26.5096 14.3107 26.7277 14.1622 26.8566C13.9772 27.0167 13.6598 27.0452 13.601 27.2932C13.5416 27.5417 13.5057 27.8376 13.3627 28.053C13.2205 28.2669 13.0793 28.4243 12.7357 28.4243C12.7357 29.0322 12.485 29.6143 11.8805 29.7555C11.778 30.1964 11.6984 30.8075 11.2264 31.003C11.0254 31.0863 11.0056 31.0329 10.9605 31.2603L10.7572 31.9128C10.6404 32.1566 10.4531 32.4106 10.1219 32.418C10.1219 32.7125 10.0828 33.0351 10.0272 33.2734C9.79902 33.2205 9.7728 33.2394 9.70104 33.4695C9.6693 33.5716 9.66102 33.6475 9.65182 33.7538C9.59432 34.4105 9.46046 33.8288 8.76355 35.0041C8.61451 35.2553 8.31642 35.9989 8.31642 36.3634C7.9889 36.5208 7.8555 36.6758 7.71152 37.0417C7.58594 37.3601 7.46128 37.6527 7.46128 38.0747C6.91939 38.4378 6.79933 38.7484 6.63603 39.388C6.58129 39.6015 6.61027 39.7948 6.46491 39.9301C6.2947 40.0879 6.27308 40.0842 6.14566 40.3239C5.87748 40.8301 5.70314 41.4481 5.70314 42.0679C5.09915 42.2087 4.96345 43.1084 4.86639 43.6555C4.81533 43.9449 4.90411 44.1322 4.67917 44.3241C4.16396 44.7635 3.94454 46.1698 3.94454 46.8692C3.66946 47.0146 3.64048 47.0804 3.49971 47.3754C3.38379 47.6183 3.32675 47.8411 3.26005 48.1337C3.20301 48.3836 3.11791 48.7462 3.09583 48.968C3.07973 49.129 3.08709 49.3057 3.05535 49.4028C3.00291 49.562 2.91965 49.5579 2.82259 49.6932C2.4647 50.1906 2.18594 52.1348 2.18594 53.0491C1.89798 53.1163 1.79816 53.4798 1.72134 53.7255C1.33723 54.9505 1.01661 57.5126 0.95083 58.8968C0.938869 59.1499 0.906669 60.332 0.829848 60.5345L0.638026 60.9606C0.326603 62.2343 0.258983 63.889 0.190442 65.2189L0.102121 66.3191C0.0832608 66.4884 0.095221 66.7088 0.096141 66.8837L0.00690007 68.6005C0.00414004 68.6236 0.00184002 68.6466 0 68.6696V70.1149C0 70.2419 0.143981 70.4113 0.181242 70.5511C0.232302 70.7417 0.258523 70.8512 0.292103 71.0582L0.557066 73.2651C0.633426 73.8459 0.621006 74.4316 0.667927 75.0082L0.760848 76.1512C0.771428 76.351 0.749348 76.5695 0.760388 76.7697C0.772348 76.9906 0.810528 77.0628 0.809148 77.3389L0.856529 78.5275C0.850548 79.948 0.902989 79.0571 1.20567 80.0801C1.40899 80.7662 1.48812 81.4522 1.5769 82.1807C1.61692 82.5088 1.69466 82.9818 1.71076 83.3301C1.73054 83.7622 1.66752 83.7406 1.9265 84.0176C2.31244 84.4304 2.42836 85.6631 2.51071 86.2383C2.56039 86.5862 2.61375 87.051 2.61375 87.4186C3.29409 87.4338 3.08893 88.4728 3.08893 89.0826C3.47119 89.285 3.55584 89.6955 3.67636 90.111C3.79918 90.5334 3.89854 91.0355 3.94546 91.5057C3.99238 91.9783 4.28172 91.6903 4.55727 92.5572C4.67549 92.929 4.79969 93.5042 4.79969 93.9786C5.05545 94.0384 5.13595 94.2142 5.24497 94.4365C5.34709 94.6463 5.42207 94.8957 5.48463 95.1474C5.54904 95.4046 5.61482 95.6393 5.64564 95.8892C5.7013 96.3415 5.79514 96.1593 6.00858 96.4773L6.50769 97.3566C6.56197 97.4611 6.59969 97.5803 6.65259 97.6875C7.5243 99.4637 8.37162 101.723 9.5175 103.283C9.65458 103.469 9.79028 103.653 10.0746 103.676C10.0746 104.274 10.3837 105.074 10.7048 105.328C10.9173 105.496 10.8786 105.337 11.0006 105.603C11.6179 106.949 11.7982 106.534 11.9477 106.985C12.0954 107.431 12.2798 107.778 12.6497 108.041C12.7904 108.142 12.7752 108.188 12.858 108.404C12.9919 108.751 13.2095 109.346 13.6391 109.381C13.6493 109.847 14.0807 110.189 14.4943 110.285C14.4943 110.856 14.7431 111.39 15.1843 111.544C15.4166 111.624 15.3412 111.556 15.4341 111.77C15.4943 111.908 15.5394 111.991 15.6264 112.1C15.7998 112.319 16.0827 112.355 16.2271 112.498C16.2869 112.557 16.4475 113.018 16.5229 113.153C16.6678 113.412 16.7925 113.592 17.0248 113.744C17.2566 113.896 17.3196 114.601 18.0119 114.658C18.0685 115.339 18.7185 115.405 18.8606 115.568C18.9094 115.623 18.9411 115.759 18.9986 115.858C19.1569 116.128 19.4246 116.436 19.7701 116.465C19.8018 116.846 20.2282 117.312 20.6252 117.32C20.72 117.728 21.0774 118.186 21.5282 118.224C21.537 118.621 22.0025 119.048 22.3834 119.079C22.4202 119.519 22.8861 119.945 23.3337 119.983C23.342 120.348 23.6668 120.522 23.923 120.676C24.3145 120.912 24.8338 121.056 24.9746 121.525C25.079 121.873 25.0174 121.655 25.3458 121.819C25.5956 121.944 25.9199 122.224 25.947 122.549C26.1867 122.549 26.3799 122.553 26.5662 122.596C26.8933 122.672 26.7612 122.69 26.7543 122.977C27.0616 123.049 27.1334 122.926 27.2332 123.164C27.2907 123.301 27.3606 123.434 27.5023 123.56C27.7236 123.755 28.1238 123.919 28.5125 123.928C28.541 124.051 28.5612 124.134 28.627 124.241C28.8124 124.542 29.0981 124.775 29.4628 124.784C29.4628 125.431 29.8957 125.079 30.2706 125.259C30.4229 125.914 30.266 125.573 30.9528 125.907C31.2178 126.036 31.5798 126.249 31.6483 126.543C31.8871 126.543 31.8949 126.548 32.0761 126.59C32.1962 126.882 31.899 126.97 32.9791 126.97C33.0026 127.253 33.3264 127.437 33.5422 127.548L34.1402 127.806C34.3476 127.897 34.1829 127.74 34.3117 127.967C34.4327 128.18 34.366 128.122 34.5845 128.265C34.7267 128.358 34.8256 128.428 34.9811 128.486C35.3178 128.611 35.7598 128.669 35.9236 128.731C36.1007 128.799 36.1384 129.076 36.5584 129.285C37.4292 129.718 37.6339 129.397 37.8372 129.765L38.156 130.064C38.4127 130.216 38.6528 130.322 39.0038 130.404C39.1699 130.442 39.4307 130.446 39.5572 130.563C39.5949 130.598 39.5811 130.591 39.6234 130.639C39.674 130.696 39.7048 130.733 39.7628 130.785C39.9514 130.954 40.2679 131.096 40.519 131.217C41.5219 131.699 44.1246 132.514 44.6936 132.983C44.8348 133.1 44.8896 133.136 45.0984 133.148C45.3422 133.162 45.4807 133.181 45.6674 133.197C45.8592 133.596 45.6978 133.494 46.7075 133.582C47.1974 133.625 46.9931 133.811 47.6487 134.067C48.145 134.261 49.4146 134.481 50.0871 134.481C50.2054 134.924 51.2698 135.113 51.6682 135.181L53.1439 135.416C53.1503 135.419 53.2897 135.522 53.309 135.536C53.9171 135.964 56.7784 136.239 57.5953 136.239C57.6689 137.124 60.2473 136.59 61.2745 136.742C61.7837 136.818 62.3053 136.802 62.8247 136.808C63.1085 136.811 63.2497 136.86 63.5828 136.858C64.6426 136.852 65.7245 136.954 66.7669 136.953C67.3056 136.952 67.8447 136.955 68.3829 136.952C68.6865 136.95 68.831 136.99 69.0688 137H74.2346C76.6368 136.957 79.0293 136.836 80.0321 136.531C80.6659 136.339 80.246 136.215 81.2598 136.191C81.7548 136.179 82.2488 136.113 82.695 136.058C83.2613 135.987 84.1652 135.887 84.633 135.62C84.8663 135.486 84.777 135.352 85.1561 135.335C85.9141 135.301 87.4717 135.089 88.09 134.752C88.6939 134.422 87.8912 134.594 88.9865 134.413C89.4428 134.337 89.8716 134.23 90.2483 134.106C90.8992 133.891 90.9057 133.616 91.2888 133.578C91.7456 133.532 92.1973 133.441 92.609 133.33C92.9338 133.243 93.5272 133.102 93.616 132.721C93.8373 132.721 94.0516 132.734 94.2586 132.698C94.7145 132.617 94.4343 132.585 94.599 132.421C94.7674 132.253 95.537 132.246 95.8024 132.246C95.9404 131.654 96.9984 131.391 97.5605 131.391C97.9419 130.821 99.0928 130.502 99.7465 130.487C99.8573 130.256 99.8261 130.245 100.05 130.078C100.213 129.957 100.351 129.893 100.547 129.815C100.752 129.732 101.049 129.698 101.154 129.518C101.198 129.441 101.155 129.485 101.214 129.389C101.432 129.035 102.084 128.855 102.468 128.79C102.599 128.768 102.719 128.773 102.795 128.737C103.031 128.626 102.913 128.333 103.909 127.997C104.726 127.721 104.527 128.071 104.666 127.661C104.761 127.379 104.964 127.21 105.25 127.105L105.83 126.971C106.099 126.882 105.929 126.728 106.125 126.506C106.222 126.396 106.456 126.265 106.594 126.214C106.808 126.137 106.963 126.114 107.254 126.114C107.306 125.493 107.955 125.263 108.585 125.211C108.605 124.314 110.263 124.411 110.343 123.452C110.769 123.443 111.236 123.018 111.246 122.597C111.834 122.597 112.351 122.329 112.527 121.929C112.75 121.423 112.567 121.891 113.074 121.478C113.243 121.34 113.426 121.115 113.432 120.837C114.159 120.837 114.287 120.835 114.287 120.41C114.468 120.367 114.476 120.362 114.715 120.362C114.776 120.099 114.867 120.004 115.019 119.811L115.866 118.899C116.232 118.537 116.776 118.063 117.23 117.839C117.571 117.671 117.54 116.905 118.279 116.844C118.287 116.456 118.746 115.997 119.134 115.989C119.233 115.566 119.569 115.125 120.037 115.086C120.046 114.697 120.505 114.238 120.892 114.23C120.892 113.626 121.218 112.912 121.795 112.899C121.805 112.484 122.236 112.053 122.651 112.043C122.729 111.706 123.076 111.037 123.304 110.843C123.655 110.545 123.454 110.634 123.674 110.31C124.074 109.721 124.313 110.049 124.424 109.681C124.583 109.153 124.653 108.772 125.172 108.528C125.377 108.432 125.266 108.509 125.377 108.257C125.512 107.948 125.663 107.629 125.873 107.375C125.988 107.236 126.06 107.255 126.136 107.163L126.461 106.538C126.718 106.162 127.024 105.834 127.245 105.42C127.639 104.682 127.333 104.765 127.695 104.491C128.103 104.181 128.183 103.664 128.385 103.28C128.453 103.152 128.53 103.137 128.628 103.047C129.17 102.551 129.617 101.365 129.953 100.665C130.348 99.8415 131.031 98.2516 131.48 97.5338C131.535 97.4464 131.61 97.3258 131.672 97.2499C131.891 96.9807 131.868 97.1638 131.978 96.6052C132.044 96.2693 132.213 95.8662 132.376 95.5772C132.566 95.2399 132.72 95.4576 132.768 95.0669C132.841 94.4848 132.954 93.7044 133.334 93.2562C133.422 93.1531 133.513 93.1356 133.628 93.0749C133.628 92.4757 133.91 91.1086 134.284 90.6416C134.413 90.4805 134.446 90.5606 134.521 90.4037L134.787 88.9105C134.901 88.4512 135.011 87.975 135.434 87.7513C135.434 87.0491 135.54 86.4555 135.644 85.8219C135.709 85.4248 135.883 84.3894 136.29 84.2813C136.29 83.6569 136.409 82.9119 136.476 82.3284C136.618 81.086 136.82 79.809 137.062 78.5892C137.156 78.1106 137.26 77.3058 137.54 76.8815C137.695 76.6487 137.593 76.2221 137.627 75.9225L137.761 73.8703C137.763 73.6231 137.799 73.6093 137.81 73.3963L137.903 71.3504C137.91 71.1112 137.951 71.0872 137.954 70.8309C137.959 70.4623 137.982 69.9382 138 69.3653V67.2666C137.977 66.8524 137.934 66.4857 137.86 66.2151C137.829 66.1037 137.806 66.0476 137.745 65.9496L137.65 65.8065C137.646 65.7959 137.64 65.7839 137.637 65.7724C137.602 65.6647 137.593 62.5191 137.497 61.8712L137.063 56.8394C137.021 56.5283 137.158 56.1869 136.859 56.1869C130.428 56.1869 124.189 56.4244 117.756 56.4244L111.671 56.4262C111.41 56.4262 111.365 56.3885 111.15 56.377C110.794 56.3576 110.374 56.377 110.01 56.377C109.574 56.3774 109.327 56.3268 108.917 56.3291L104.592 56.0917C104.66 55.9499 104.687 55.3324 104.687 55.0936C104.687 54.6523 104.505 54.4402 104.212 54.2855C104.212 53.6639 103.939 51.4114 103.309 51.243C103.309 50.7709 103.221 50.307 103.098 49.9334C102.834 49.1313 102.61 49.2505 102.48 49.0301C102.408 48.9072 102.417 48.5515 102.38 48.3702C102.338 48.1701 102.274 47.9326 102.223 47.7661C102.111 47.4002 101.925 46.9566 101.551 46.8697C101.551 46.4574 101.422 46.1532 101.294 45.8435C101.152 45.5002 101 45.272 100.696 45.111C100.696 44.5486 100.36 43.8391 99.8408 43.8276C99.7911 43.2303 99.516 42.5447 98.9378 42.4963C98.9378 41.316 98.2078 41.2907 98.0826 41.1651L97.8135 40.341C97.6742 40.0883 97.5224 39.9103 97.1797 39.8817C97.1617 39.6668 97.0053 39.4497 96.8843 39.3213C96.7307 39.1584 96.4565 39.087 96.3447 38.9577C96.1805 38.7682 96.0867 38.1304 95.4211 38.0752C95.4132 37.7291 95.146 37.4811 94.8911 37.3219C94.5636 37.1176 94.6441 37.222 94.4339 36.876C94.2761 36.6169 94.001 36.3441 93.6629 36.316C93.65 35.7362 92.6348 35.3133 92.2291 34.993C92.0216 34.8292 91.9793 34.6429 91.736 34.5356C91.3882 34.3829 91.1844 34.1965 91.0257 33.8675C90.9172 33.6425 91.0271 33.7299 90.7391 33.6788C90.2409 33.5905 89.7129 33.3503 89.671 32.8459C89.3476 32.7705 89.0721 32.7631 88.8163 32.6076C88.6047 32.4787 88.3664 32.256 88.3402 31.9427C87.8061 31.9427 86.9593 31.6417 86.6741 31.2326C86.3613 30.7849 85.605 30.8995 85.2517 30.2313C84.6183 30.2313 83.7167 29.9474 83.3289 29.6828C83.092 29.5213 83.1868 29.4528 83.0479 29.346C82.9508 29.271 82.6835 29.2682 82.5418 29.2342C81.0179 28.8707 79.7087 28.174 77.7638 27.7865C77.2205 27.6784 76.6979 27.5611 76.1285 27.5684C75.7793 27.573 75.7508 27.568 75.5231 27.4133C74.558 26.7581 68.7509 26.6647 67.0489 26.8059C66.8226 26.8248 66.5231 26.8082 66.2899 26.8073C65.9743 26.8059 65.8796 26.8584 65.5796 26.8575C64.7443 26.8556 62.9848 26.9964 62.2225 27.3024C61.9792 27.4 61.941 27.5362 61.7257 27.5661L60.3176 27.6784C59.6713 27.7635 59.0218 27.8395 58.4284 28.0704C58.2071 28.1565 58.0342 28.2016 57.9748 28.4248C57.1399 28.4248 55.7084 28.6056 55.1297 29.0018C54.9264 29.1408 54.9503 29.288 54.6991 29.3317C54.5579 29.3566 54.5303 29.3566 54.3813 29.3943C53.9585 29.5006 53.5583 29.6115 53.2064 29.7873C52.7961 29.9921 52.7814 30.1536 52.4916 30.2134C52.3347 30.2461 52.3136 30.2433 52.182 30.2843C50.7601 30.7283 51.25 31.0113 50.7127 31.096C50.4901 31.1309 50.3319 31.1834 50.1152 31.2589C49.8033 31.367 49.2633 31.5552 49.2311 31.9431C47.4628 31.9431 49.2154 32.4185 47.5203 32.4185C47.3625 32.7475 47.38 32.8344 47.0309 33.0222C46.747 33.175 46.5009 33.2016 46.1895 33.2739C46.1191 33.5762 46.0046 33.7014 45.7723 33.8551C45.5336 34.0129 45.3454 34.0953 45.0956 34.2241C43.9728 34.8039 44.8035 34.8716 43.9084 35.0805C43.9084 35.4564 43.8214 35.5084 43.1006 35.5084C43.0702 35.8706 42.7376 36.1968 42.5191 36.4007C42.1433 36.7499 41.6921 37.0412 41.2744 37.3421C40.4436 37.9417 39.3916 38.6122 39.1165 39.6521C39.0397 39.9425 38.9053 39.8155 38.6933 39.9894C38.5682 40.0925 38.4288 40.2296 38.3487 40.3575C38.2107 40.5798 38.2899 40.6847 38.0387 40.808C37.748 40.9502 37.3588 41.2521 37.3505 41.6405C36.5395 41.6584 36.6095 42.6749 36.4186 42.8948C36.2286 43.113 35.5924 43.0835 35.5924 44.2551C35.0252 44.3025 34.7032 44.9803 34.6894 45.5863C34.3886 45.5932 34.2064 45.821 34.0845 46.0271C33.9387 46.2742 33.8338 46.4937 33.8338 46.8697C33.5164 47.0376 33.366 47.2475 33.2289 47.5953L32.9934 48.3583C32.9405 48.6744 32.9308 48.5759 32.7036 48.7816C32.1677 49.2662 32.1746 50.36 32.0149 50.7548L31.8231 50.9908C31.3171 51.6001 30.72 53.9119 30.5641 54.5331C30.4744 54.8902 30.3819 55.2666 30.323 55.6232C30.1653 56.5813 30.2205 55.839 29.9219 56.6006C29.6846 57.2052 29.5866 58.1651 29.4808 58.9166C29.4541 59.1075 29.4375 59.3735 29.4219 59.523C29.3529 60.1824 29.3892 60.8414 29.2917 61.4847C29.2397 61.828 29.2241 63.7192 29.2241 64.1743C29.2241 65.9961 29.2255 68.0217 29.4067 69.7436C29.4817 70.4568 29.519 71.1185 29.639 71.7452C29.7048 72.0894 29.8548 73.238 30.2697 73.3489C30.2697 73.7667 30.2908 74.1574 30.3589 74.4951C30.427 74.8311 30.5682 75.1141 30.651 75.4389C30.7145 75.6879 30.7044 75.9819 30.7605 76.2327C30.8176 76.4881 30.8934 76.3979 31.0172 76.5939C31.4284 77.246 31.4662 78.1051 31.6304 78.8326C31.7017 79.1487 31.7495 78.9573 31.9423 79.1864C32.2063 79.5007 32.503 80.5545 32.503 81.1449C32.9902 81.4711 33.026 81.6616 33.2501 82.2515C33.3287 82.4586 33.3361 82.8286 33.4741 82.9786C33.6434 83.1626 33.7584 83.2335 33.9203 83.4829C34.0357 83.661 34.1392 83.9251 34.2174 84.1363C34.3462 84.4851 34.4401 84.3264 34.6705 84.6338C34.8845 84.9186 35.1273 85.5946 35.1641 86.0414C35.9981 86.0598 36.0174 87.4969 36.713 87.8199C37.0456 87.9745 36.7916 87.8047 37.0184 88.1797C37.1872 88.4586 37.4545 88.6758 37.7779 88.7512C37.7779 89.389 38.0111 89.8653 38.455 90.0227C38.8069 90.1478 38.6344 90.2656 38.9058 90.5702C39.0374 90.7184 39.2964 90.9181 39.536 90.9379C39.5673 91.3148 40.0149 91.7625 40.3912 91.7933C40.4229 92.1762 40.9114 92.6649 41.2942 92.6966C41.3254 93.0735 41.773 93.5208 42.1493 93.5521C42.2059 94.2326 42.8586 94.2814 43.0721 94.483C43.2786 94.6781 43.1452 94.6771 43.5657 94.9399C43.8049 95.0894 43.9217 95.1488 44.1894 95.2671C44.5376 95.4212 44.1913 95.6725 45.1904 96.1671C45.6214 96.3806 46.0685 96.5527 46.1886 97.07C46.5538 97.07 46.6629 97.0985 46.949 97.1647C47.0175 97.3134 46.9554 97.2549 46.9964 97.45C47.1841 97.4657 47.219 97.4974 47.4716 97.4974C47.587 97.9926 48.3791 98.2843 48.8621 98.3878C49.4073 98.5047 49.088 98.6156 49.3889 98.8158C49.5531 98.9248 49.5678 98.8287 49.7523 98.8287C50.0232 98.8287 49.9974 99.0739 50.0848 99.2566C50.2638 99.2566 50.4657 99.2713 50.5757 99.2888C51.2445 99.3937 50.7767 99.6215 51.1999 99.7103C51.3761 99.7471 51.5086 99.7135 51.6778 99.755C51.9138 99.8129 51.9442 100.039 52.2699 100.209C52.9107 100.545 53.671 100.538 53.9231 100.647C54.1039 100.725 53.9999 100.776 54.1632 100.93C54.557 101.3 55.6113 101.492 56.2153 101.492C56.38 101.803 56.4274 101.897 56.8437 101.956C57.1229 101.996 57.6225 101.966 57.9261 101.966C58.0811 102.017 58.1322 102.429 59.7923 102.714C60.5693 102.847 61.3632 102.919 62.1627 103.005L64.6725 103.157L72.8482 103.202C73.011 103.202 72.9908 102.971 73.3151 102.861C74.0147 102.626 74.8547 102.727 75.6041 102.727C75.7453 102.121 76.9721 102.43 77.4119 102.254C78.0665 101.992 78.21 101.88 79.0431 101.604C80.2115 101.218 81.384 100.822 82.5892 100.54C82.6283 100.074 82.925 100.16 83.397 100.16C83.4789 100.038 83.4701 100.042 83.5309 99.9142C83.644 99.6754 83.7797 99.7333 84.0327 99.6556C84.403 99.5419 84.835 99.3933 85.1243 99.131C85.6087 98.692 85.2297 98.9934 85.95 98.721C86.3245 98.5797 86.7173 98.4398 86.9666 98.1219C87.175 97.8564 87.1736 97.9622 87.5315 97.8784C87.5315 97.5292 87.7013 97.4984 88.3393 97.4984C88.4345 97.2996 88.3742 97.3074 88.5674 97.1565C88.8057 96.9706 89.6057 96.6549 89.6986 96.5293C89.8463 96.3296 89.7184 96.3852 89.9626 96.2223L90.747 95.8188C91.097 95.6973 91.1407 95.187 91.6757 94.9413C92.2134 94.6946 91.7406 94.7848 92.3206 94.3978C92.8188 94.0656 93.1008 94.0799 93.236 93.8397C93.2848 93.7531 93.2761 93.7522 93.3418 93.6597C93.6234 93.2608 94.2462 92.6423 94.668 92.3722C95.0107 92.1523 94.9059 92.2535 95.1064 91.9075C95.3714 91.4491 95.7095 91.52 95.9174 91.2453C96.3848 90.6282 96.8402 89.9845 97.3572 89.4056C97.4906 89.256 97.5385 89.2685 97.6346 89.0651C97.7238 88.8759 97.7229 88.8589 97.8559 88.7158C97.9644 88.5989 98.0652 88.5166 98.0813 88.3238C97.9028 88.229 97.9253 88.2285 97.6535 88.2285C97.5794 87.9096 97.6111 88.0214 97.4635 87.8006C96.9911 87.8006 96.6943 87.8866 96.6557 87.4205C96.4147 87.4007 95.6557 87.3165 95.5163 87.229C95.2463 87.0597 95.4468 86.8977 94.5171 86.8977C94.0176 86.1514 92.5902 86.185 92.2705 85.9125C91.7769 85.492 90.4571 85.139 89.7648 85.139C89.7179 84.5753 88.2109 84.3287 87.8107 84.2891C87.446 84.2532 87.5062 84.1083 86.8986 83.823C86.6138 83.6895 86.1405 83.5556 85.8217 83.4742C85.1137 83.2938 85.5402 83.453 85.157 83.141C84.8097 82.858 84.1049 82.8663 83.7425 83.06C83.5838 83.1447 83.5516 83.2989 83.4117 83.3946C83.3367 83.4456 83.2797 83.4613 83.1997 83.5151C82.9641 83.6739 82.8202 83.8533 82.6872 84.0958C82.5547 84.3374 82.4968 84.2638 82.2093 84.331C82.1458 84.463 82.1619 84.423 82.1619 84.6163C81.9057 84.6761 81.7129 84.7589 81.4015 84.7589C81.2791 84.9421 81.2009 85.1022 81.0234 85.2361C80.5514 85.5918 79.8039 86.0759 79.1682 86.0902C79.0573 86.566 78.9593 86.4702 78.6456 86.4702C78.261 86.4702 78.3705 86.7684 78.1644 86.8922L76.8258 87.3597C76.3884 87.5351 75.9491 87.6998 75.541 87.9285C74.8662 88.3067 74.8248 88.2363 74.0373 88.2777C72.856 88.3403 71.2713 88.7848 70.0357 88.9335C68.7178 89.0922 65.8727 89.2869 64.3951 89.0306C64.006 88.9634 63.6334 88.8736 63.2525 88.795C62.8932 88.7209 62.5165 88.6123 62.1613 88.5083C59.7624 87.8038 57.4008 86.9189 55.1702 85.8044C52.768 84.6039 52.8619 83.9771 52.6645 83.8423C52.6227 83.8138 52.5003 83.7756 52.4299 83.7443C52.1452 83.6173 51.785 83.4516 51.5688 83.2271C51.354 83.0048 51.4731 83.0425 51.1898 82.8935C50.923 82.7526 50.5904 82.4494 50.5609 82.0965C50.1244 82.0601 49.8608 81.6455 49.6869 81.3073C49.5834 81.1062 49.3889 81.1435 49.1032 80.6074C49.042 80.4928 48.8231 79.9867 48.772 79.9406C48.5751 79.7626 48.3939 79.8238 48.1928 79.5214C47.949 79.1547 47.7752 78.585 47.438 78.2799C47.0783 77.9546 47.1583 78.3374 46.9973 77.7227C46.7153 76.6464 46.2659 77.0633 46.172 76.599C46.0773 76.1315 45.9457 75.5153 45.6085 75.1661C45.2833 74.8292 45.3666 75.1297 45.2585 74.5182C44.9429 72.7401 44.4364 72.3706 44.4305 72.3517C44.4305 71.65 44.3076 71.0486 44.189 70.4541C44.0721 69.8697 43.9364 69.2434 43.8246 68.6797C43.3932 66.5055 42.8858 63.6829 43.6968 61.5399C44.2506 60.0766 44.1623 58.1177 44.6126 57.6074C44.804 57.3902 44.8265 57.6014 44.8877 57.1693C44.9917 56.434 45.0736 55.6021 45.7608 55.2381C45.7608 54.8741 45.908 54.4931 46.029 54.223C46.155 53.9409 46.2723 53.738 46.5074 53.5603C46.6702 53.4375 46.6822 53.1826 46.7714 52.969C47.0051 52.4081 47.6155 51.3474 48.1096 51.0276C48.456 50.8035 48.2687 51.0516 48.4238 50.6761C48.513 50.4603 48.6828 50.2587 48.8769 50.1313C49.2808 49.8671 49.1625 50.019 49.2352 49.4912C49.3291 48.8101 49.6865 49.58 49.7053 48.7255C50.273 48.7131 50.4119 48.1121 50.5913 47.9004L51.6622 47.2603C51.7878 47.1596 51.8352 47.0114 51.9511 46.9309C52.176 46.774 52.3982 46.71 52.579 46.4657C52.7478 46.2374 52.728 46.1431 53.0201 46.0515C53.6062 45.8675 54.1499 45.4611 54.6582 45.1229C54.8091 45.0226 55.0064 44.8698 55.1362 44.7456C55.2921 44.596 55.3731 44.4106 55.5768 44.3305C55.9987 44.1653 56.248 44.1336 56.8326 43.8754C57.3377 43.6523 57.8506 43.4576 58.2982 43.1548C58.5494 42.985 58.6257 42.9749 58.9252 42.9266C59.0683 42.9036 59.1327 42.8866 59.2762 42.8502C59.8636 42.7002 60.406 42.6132 60.8894 42.3247C61.0136 42.2502 61.0449 42.1807 61.1365 42.1439L63.3785 41.8199C66.4265 41.2926 69.7776 40.3778 72.8606 41.5825C73.8551 41.9708 75.1496 41.7132 76.1285 42.1637C76.392 42.2851 76.4058 42.4476 76.5342 42.5184C76.7168 42.6192 77.0108 42.6141 77.1934 42.6671C77.6258 42.7922 77.9864 42.8879 78.3461 43.0826C78.8006 43.3288 78.5633 43.4751 79.5012 43.4963C79.5012 43.7765 79.5633 43.8175 79.8448 43.8653C80.0587 43.9017 80.1668 43.9237 80.4042 43.9237C80.475 44.2275 80.7833 44.3784 81.0146 44.5491C81.4944 44.903 82.0469 45.2085 82.5428 45.5403L83.6468 46.3373C83.9407 46.5784 84.219 46.8342 84.3639 47.1886C84.467 47.4412 84.3119 47.2686 84.5093 47.3758C84.5797 47.414 84.6082 47.403 84.7085 47.4619C84.9744 47.6183 85.1331 47.8852 85.2697 48.136C85.3658 48.3127 85.2665 48.1986 85.4532 48.2851C85.6593 48.3808 85.6906 48.407 85.8336 48.5704C85.9155 48.6638 86.0342 48.8143 86.0866 48.9353C86.2854 49.3973 86.4252 49.0761 86.8843 50.0388C86.9505 50.1773 86.9671 50.3604 87.0789 50.4621C87.2569 50.6241 87.2127 50.4708 87.4009 50.758C87.6129 51.0815 87.6691 51.2343 87.8011 51.641C88.0182 52.3101 87.8278 51.9093 88.2077 52.4702C88.7602 53.2856 89.3858 54.2119 89.3858 55.2845C89.3858 56.3332 88.4929 56.0829 87.7726 56.1427C87.0154 56.2053 86.2164 56.2394 85.3934 56.2348C84.9863 56.2325 84.6648 56.2831 84.2061 56.2831C83.794 56.2831 83.3814 56.2808 82.9692 56.2812L77.7408 56.238C77.5913 56.2256 77.4179 56.2389 77.2665 56.2371C76.7692 56.2315 75.4559 56.0958 75.1993 55.8809C75.0304 55.7396 75.196 55.7995 74.9352 55.6702C74.6201 55.5137 74.3625 55.233 74.2751 54.8571C73.673 54.8437 73.9563 54.6334 73.7999 54.477C73.6679 54.4139 73.2419 54.3343 73.0395 54.3343C72.9935 53.784 72.2032 53.4789 71.7087 53.4789C71.5528 52.8098 71.1894 53.2286 70.8775 52.9792C70.6977 52.8356 70.8343 52.808 70.6875 52.6939C70.6043 52.629 70.0665 52.5696 69.9396 52.5392C68.2058 52.1279 68.4818 51.9838 68.1037 51.8085C67.8406 51.6866 65.5336 51.7197 65.1031 51.7197C64.1302 51.7197 62.3136 51.7952 61.6921 52.253L61.4842 52.473C61.3085 52.6695 61.0325 52.6014 60.757 52.6483C60.6387 52.6686 60.509 52.6911 60.4147 52.7334C60.0623 52.8917 60.3554 53.0979 59.4009 53.0979C59.187 53.5442 59.003 53.7541 58.3723 53.9229C58.3014 53.9418 58.232 53.946 58.1749 53.963C58.163 53.9667 58.1492 53.969 58.1381 53.9736L58.0264 54.0518C58.013 54.0665 57.9541 54.1664 57.9334 54.1967C57.7724 54.4383 57.5779 54.6123 57.3695 54.8207C57.1252 55.0651 56.9053 55.2951 56.6174 55.4944C56.5392 55.5487 56.5557 55.5381 56.4725 55.5873C56.2544 55.7166 56.2595 55.764 56.1546 55.9826C56.029 56.2444 55.6665 56.59 55.3616 56.6153C55.3445 56.8178 55.1214 57.2121 55.0276 57.3746C54.7916 57.7827 54.6426 57.7965 54.5004 57.988C54.3518 58.1877 54.1816 58.6833 53.9038 59.0546C53.7722 59.2304 53.7741 59.2106 53.6039 59.3247C53.6039 60.2703 53.1862 61.3204 52.9861 62.1294C52.5173 64.022 52.2303 65.6758 53.0657 67.5164C53.395 68.2425 53.2529 69.6193 53.7584 70.1508C53.8578 70.2557 53.9231 70.253 53.9765 70.3128C54.0947 70.4467 54.1223 70.9888 54.4507 71.3592C54.793 71.7448 54.8325 71.3923 54.9466 72.0039C55.1063 72.8588 55.6169 72.718 55.8229 73.0291C55.9991 73.2955 56.1339 73.5454 56.4334 73.7023C56.6031 73.7911 56.645 73.8003 56.7291 73.9765C56.9904 74.5246 57.2255 74.4537 57.5263 74.6999C57.6128 74.7708 57.611 74.8122 57.7011 74.9051C57.9114 75.1219 58.3562 75.3193 58.6584 75.4688C58.9947 75.635 59.0223 75.9018 59.5297 76.1186C60.0025 76.3206 60.4934 76.3707 60.6097 76.5116C60.94 76.9114 60.9773 76.9381 61.533 77.1088C63.229 77.6302 65.4913 77.4116 67.2918 77.3895L69.2555 77.2621C69.5338 77.2018 69.3305 77.2763 69.4828 77.1562C69.4906 77.1502 69.4998 77.1401 69.5076 77.1337C69.5154 77.1277 69.5251 77.1176 69.5329 77.1116C69.5407 77.1056 69.5513 77.0964 69.5591 77.0904C69.7523 76.9436 69.9262 76.8847 70.1617 76.7895C70.567 76.6261 71.0105 76.5152 71.447 76.4117C71.8463 76.3164 71.5289 76.1908 72.4696 75.7233C73.3477 75.2866 72.7065 75.5503 73.1923 75.0676C73.3445 74.9166 73.4172 74.8854 73.6256 74.7878C73.8326 74.6912 73.9517 74.7004 74.1366 74.6337C74.351 74.5559 74.282 74.4473 74.431 74.2628C74.6864 73.9466 75.11 73.7976 75.1878 73.6416C75.7867 72.4392 75.6188 72.966 76.0286 72.4382L76.1252 72.2022C76.1561 72.0991 76.1846 71.9979 76.2182 71.9151C76.3442 71.604 76.5784 71.3399 76.8341 71.1526C77.1382 70.9299 77.3746 70.8475 77.7739 70.7145C78.8117 70.368 80.4295 70.3487 81.5965 70.4453C81.7916 70.4614 82.0151 70.4402 82.2134 70.4462C82.4581 70.4536 82.5046 70.4973 82.781 70.4964C83.696 70.4922 85.2412 70.6855 86.3461 70.6855H100.127C101.83 70.6855 103.397 70.7329 105.07 70.7329C106.733 70.7329 108.396 70.7329 110.059 70.7329C111.759 70.7329 113.339 70.7803 115.002 70.7803C116.681 70.7803 118.36 70.7803 120.039 70.7803L120.209 72.274C120.266 72.6596 120.276 73.4538 120.276 73.8703C120.276 74.4712 120.241 75.0616 120.161 75.6087C120.087 76.1131 119.988 76.7518 119.564 76.8654C119.564 78.799 119.001 80.1486 118.729 81.9244C118.665 82.3385 118.725 82.7526 118.537 82.9689C118.487 83.0269 118.482 83.014 118.422 83.0918C117.993 83.6467 117.89 84.7125 117.769 85.3857C117.71 85.717 117.744 85.5021 117.568 85.7078C117.125 86.2273 116.803 88.0651 116.32 88.8796C116.199 89.0826 116.245 89.0255 116.047 89.13C116.047 89.3425 116.02 89.4778 115.982 89.6831C115.938 89.9246 115.935 89.9799 115.667 89.9858L115.572 90.8891C115.296 90.8951 115.191 90.966 115.154 91.1841C115.098 91.509 115.23 91.7533 114.764 91.792C114.678 92.8204 114.727 92.508 114.336 92.6952C114.264 93.0026 114.241 93.1112 114.241 93.5033C113.785 93.7444 113.622 94.2552 113.408 94.714C113.326 94.8897 113.406 94.7839 113.265 94.9035C112.951 95.1704 112.715 95.5556 112.574 95.9711C112.437 96.3746 112.518 96.105 112.21 96.273C111.976 96.4009 112.103 96.5445 112.103 96.7828C112.103 97.0166 111.858 96.9761 111.734 97.0322C111.577 97.1035 111.663 97.0087 111.618 97.202C111.601 97.2752 111.607 97.4003 111.554 97.4707C111.439 97.6244 111.266 97.2674 111.204 97.976C111.189 98.1499 111.19 98.2898 111.028 98.3704C110.83 98.4693 110.666 98.5208 110.535 98.732C110.389 98.9662 110.297 99.252 110.297 99.6349C110.039 99.7586 109.977 99.7453 109.76 99.9537C109.608 100.101 109.448 100.267 109.442 100.538C108.635 100.556 108.636 101.973 107.885 102.261C107.875 102.265 107.781 102.295 107.779 102.297C107.643 102.361 107.075 103.385 106.034 104.07C105.76 104.251 105.873 104.668 105.238 104.937C104.945 105.062 105.083 105.047 104.944 105.309C104.812 105.556 104.499 105.835 104.167 105.862C104.153 106.475 103.455 106.651 103.326 106.78C103.222 106.884 103.174 107.12 102.992 107.302C102.846 107.447 102.66 107.6 102.409 107.621C102.39 108.451 100.731 108.404 100.65 109.38C100.279 109.41 99.7782 109.817 99.7474 110.188C98.7335 110.188 98.9153 110.322 98.9396 110.616C98.7451 110.661 98.7165 110.663 98.4644 110.663C98.3177 110.94 98.332 110.94 98.0721 111.126C97.8862 111.259 97.6976 111.338 97.4828 111.44C97.0923 111.626 97.2468 111.473 96.9842 111.797L96.762 112.002C96.5145 112.175 95.8981 112.357 95.7697 112.531C95.4063 113.024 94.7559 113.27 94.0926 113.325C94.0801 113.879 93.3556 114.18 92.7618 114.18C92.5686 114.546 92.3859 114.665 91.9825 114.827C91.5616 114.995 91.0795 114.987 90.9397 115.21C90.7515 115.51 90.3992 115.656 90.0537 115.75C89.6908 115.849 89.2768 115.987 88.8177 115.987L88.7174 116.172C88.2772 116.746 86.8176 116.724 86.6028 116.957C86.2854 117.301 86.0991 117.406 85.5908 117.512L84.5833 117.693C84.2733 117.762 84.2291 118.256 81.8238 118.545C81.6251 118.569 81.252 118.574 81.0795 118.609C80.7777 118.671 80.9967 118.831 80.6393 118.977C80.366 119.089 79.5366 119.077 79.1231 119.077C79.1047 119.298 78.9869 119.355 78.7988 119.418C78.2505 119.601 77.4744 119.505 76.8898 119.505C76.8148 119.826 76.4808 119.853 76.1919 119.9C75.5406 120.006 74.7227 119.98 74.0387 119.98C73.8073 119.98 73.7056 119.934 73.5603 119.935C73.3358 119.936 73.3533 120.029 73.1624 120.102C72.3693 120.408 70.113 120.355 69.0485 120.361L62.4093 119.967C61.366 119.836 58.5259 119.685 57.6248 119.144L57.3152 119.073C56.8556 119.07 56.1302 119.143 55.8423 118.788C55.7245 118.643 55.7894 118.65 55.5897 118.613C55.5331 118.602 55.517 118.604 55.4614 118.598C54.6375 118.516 53.7755 118.386 53.0528 118.06C52.8297 117.96 52.8357 117.844 52.677 117.771C52.447 117.666 50.6594 117.535 50.1778 116.991C49.9919 116.781 50.0881 116.811 49.7099 116.793C49.4413 116.78 48.847 116.635 48.6202 116.552C48.2476 116.417 48.065 116.28 47.9021 115.94C47.5783 115.932 47.139 115.788 46.8758 115.683C46.6067 115.576 46.1716 115.417 46.144 115.084C45.4641 115.028 44.5698 114.604 43.9732 114.308L43.0472 113.761C42.7878 113.57 42.7041 113.365 42.5398 113.318C42.1948 113.218 41.8917 113.198 41.5996 112.975C41.4464 112.859 41.388 112.643 41.2978 112.517C41.1474 112.306 40.7224 112.499 40.2384 112.055C40.1653 111.989 40.14 111.964 40.088 111.873C40.0002 111.721 40.0793 111.855 40.0305 111.74C39.9169 111.473 39.7076 111.558 39.3764 111.444C39.1745 111.374 39.0406 111.286 38.9072 111.153C38.754 111.001 38.7213 110.841 38.6362 110.663C38.2535 110.663 38.0645 110.588 37.8115 110.443C37.5594 110.297 37.4246 110.114 37.3533 109.808C37.1146 109.808 37.1403 109.765 36.9255 109.761C36.9255 109.523 37.0824 109.452 36.7033 109.366C36.5096 109.323 36.2378 109.352 36.1053 109.202C35.885 108.955 35.8822 108.85 35.568 108.646C35.1982 108.406 35.2741 108.606 35.0961 108.215C34.9585 107.914 34.6678 107.65 34.3117 107.621C34.2703 107.122 33.7708 106.833 33.3522 106.727C32.7919 106.586 33.1217 106.685 32.8406 106.288C32.7068 106.099 32.5297 105.964 32.3135 105.864C31.8659 105.657 32.2615 105.813 31.9174 105.357C31.7417 105.125 31.6322 105.078 31.3696 104.955C31.1258 104.84 31.1708 104.632 30.973 104.4C30.8539 104.26 30.5917 104.074 30.3677 104.055C30.3677 103.825 30.3506 103.704 30.3097 103.495C30.2568 103.223 30.2352 103.189 29.9872 103.247C29.9523 103.097 29.9274 102.921 29.892 102.771C29.4693 102.762 29.0709 102.278 29.0369 101.868C28.38 101.813 28.219 101.121 28.1555 101.038C28.0782 100.937 27.9904 100.972 27.8413 100.924C27.7231 100.886 27.8984 100.921 27.7061 100.869V100.299C27.5538 100.197 27.5423 100.157 27.2783 100.157C27.2691 99.7365 26.9333 99.4338 26.6274 99.2865C26.1563 99.0597 26.528 98.5839 25.9139 98.051C25.6089 97.7864 25.5836 98.1108 25.5031 97.7013C25.4281 97.3212 25.3085 96.9287 24.9875 96.6958C24.8697 96.6107 24.8545 96.5955 24.6645 96.5914C24.5523 95.2413 23.8788 95.4645 23.7579 95.1216C23.6208 94.7324 23.4285 93.5926 22.9059 93.5493C22.9059 93.2971 22.9036 93.2686 22.8585 93.074C22.6957 93.0394 22.6957 93.079 22.6244 93.0569C22.3746 92.9796 22.4307 92.4642 22.4307 92.2185C21.8783 91.9535 22.0029 92.1573 22.0029 91.4105C21.8645 91.3373 21.7872 91.2724 21.5751 91.2678C21.5751 91.0327 21.5144 90.8252 21.4509 90.6319C21.3235 90.244 21.232 89.7944 21.0162 89.4507C20.8874 89.2455 20.7402 89.1843 20.6827 88.9763L20.5116 88.3868C20.3695 87.98 20.2236 87.6556 19.9265 87.356C19.7636 87.1918 19.851 87.3524 19.8073 87.0951C19.7186 86.5738 19.5346 85.9912 19.3998 85.5062C19.2793 85.0723 19.1417 84.7023 19.0033 84.2868L18.3441 82.5221C18.2594 82.3302 18.1095 82.1705 18.0506 82.0072C17.9632 81.7656 17.8588 79.2177 17.3799 78.3522C17.3012 78.21 17.2382 78.1861 17.1964 78.1078C17.0878 77.9049 17.1425 76.9367 17.0956 76.5921C16.9631 75.6198 16.9323 74.6433 16.8237 73.6793C16.7423 72.9591 16.6646 71.8111 16.372 71.136C16.292 70.951 16.3007 71.1632 16.3007 70.732C16.3007 69.3377 16.3536 68.0479 16.3941 66.69C16.401 66.4627 16.4323 66.4728 16.4433 66.2639C16.4525 66.0945 16.4364 65.9095 16.4415 65.7393L16.5855 63.7919C16.6301 63.0658 16.7377 61.6959 17.0133 61.1299C17.0846 60.9831 17.1467 60.9698 17.1586 60.7521C17.1688 60.5639 17.1467 60.4406 17.1761 60.2469C17.2221 59.9409 17.2295 59.5865 17.2552 59.2801C17.3035 58.7044 17.3831 58.0243 17.517 57.4979C17.8652 56.1252 17.9462 57.098 18.092 55.9817C18.2231 54.9795 18.6049 52.5185 19.2296 51.843C19.4205 51.6364 19.3565 51.4165 19.4163 51.127C19.7655 49.4433 20.1459 49.7052 20.2292 49.3729C20.2982 49.095 20.1799 48.6726 20.3032 48.4015C20.3616 48.2731 20.3037 48.3505 20.438 48.2989C20.6418 48.2207 20.622 48.3643 20.7002 47.7527C20.7793 47.1333 20.7623 47.4458 21.1634 46.6474C21.4887 46.0004 21.7757 45.3157 21.9689 44.6006C22.0761 44.2049 22.2187 44.4488 22.3949 44.2155C22.4731 44.1115 22.4234 43.7291 22.4781 43.494C23.239 43.3168 22.7914 43.2782 23.3135 42.4756C23.4437 42.275 23.4119 42.2805 23.6042 42.1485C23.7436 42.0528 23.6677 42.1834 23.7413 42.0003C23.843 41.7458 23.8278 41.5516 23.9658 41.2742C24.0628 41.0786 24.0725 41.0584 24.222 40.9125C24.4111 40.7284 24.4 40.7933 24.6162 40.6893C24.6162 40.4721 24.5863 40.1551 24.7091 39.9738C24.8494 39.7672 24.734 39.9324 24.8683 39.9172C25.0868 39.8923 25.0353 39.9149 25.0758 39.6277C25.1011 39.4469 25.0919 39.2605 25.0919 39.0732C25.4268 38.9126 25.7515 38.7649 25.9102 38.371C26.0031 38.141 25.8642 38.2376 26.0487 38.129C26.4466 37.8948 26.3748 38.2634 26.3748 37.4098C26.517 37.3348 26.6343 37.2717 26.85 37.2671C26.8799 36.905 27.2861 36.3947 27.6578 36.3638C27.6578 35.3671 27.8344 35.5346 28.0856 35.5558C28.1233 35.3938 28.1762 35.2724 28.1803 35.0805C28.5962 35.046 29.0258 34.6162 29.0355 34.1772C30.0397 33.943 29.8373 32.487 30.7936 32.4659C30.8079 31.8166 31.5559 31.6831 31.675 31.4935C31.842 31.228 31.8963 30.9381 32.3517 30.744C32.9198 30.5019 32.3599 30.645 32.8149 30.304C33.1056 30.0859 33.4322 29.9677 33.7436 29.8071C33.9681 29.6911 33.8982 29.4771 34.1305 29.2434C34.2874 29.0856 34.4493 28.907 34.7377 28.9006C34.7529 28.2283 35.5846 28.0534 35.6407 27.9973C35.8022 27.6609 35.5377 27.6195 36.1177 27.619C36.4627 27.6186 36.4963 27.4911 36.4963 27.1419C36.7277 27.1225 36.9743 26.9366 37.104 26.799C37.3022 26.5892 37.27 26.3315 37.5663 26.263C38.0681 26.1465 38.6684 26.0163 38.6822 25.3831C39.2536 25.3831 40.0126 25.1006 40.0604 24.5272C40.3461 24.5272 40.7306 24.3979 40.9087 24.2829C41.1677 24.1149 41.3126 23.9617 41.3908 23.6244C41.8715 23.6244 43.0095 23.306 43.0537 22.769C43.4635 22.769 43.7975 22.6401 44.051 22.4832C44.545 22.1777 44.1913 21.9306 44.735 21.8363C45.258 21.7451 46.3022 21.5174 46.5704 21.0103C47.2402 21.0103 48.2577 20.6633 48.3764 20.1548C48.8028 20.1548 49.3907 20.0559 49.7329 19.9432C50.1837 19.7945 50.417 19.6533 50.6097 19.2516C51.3379 19.2516 52.1286 19.0831 52.7901 18.8181C53.0643 18.7081 53.1342 18.6543 53.2708 18.3957C53.7589 18.3957 54.9199 18.5894 54.9337 17.9677C55.322 17.9677 56.1537 18.0574 56.4849 17.8554C56.6712 17.7418 56.6583 17.6622 56.7397 17.4924C56.9835 17.6093 57.6777 17.5407 58.0245 17.5416C58.4721 17.5425 58.842 17.4243 58.9257 17.0644C60.2454 17.0644 64.121 16.66 65.3133 16.4188C65.7489 16.3309 66.0005 16.209 66.4339 16.209C66.846 16.209 67.4647 16.1722 67.8525 16.2159C68.2983 16.2661 68.8043 16.2191 69.2827 16.2592L73.3707 16.4957C73.9839 16.5297 75.3759 16.6282 75.8819 16.8836C76.1091 16.9986 76.0199 17.0566 76.4578 17.0157C76.9339 16.9715 77.5628 16.9512 78.0586 17.0359C78.3705 17.0893 78.5807 17.1588 78.6474 17.445C79.1134 17.445 79.6958 17.5646 80.1204 17.635C81.0367 17.7873 81.9866 17.959 82.8353 18.247C83.0649 18.3248 83.2489 18.3681 83.4747 18.4628C83.5874 18.5102 83.661 18.5438 83.7664 18.5991C83.9186 18.6787 83.9251 18.6584 83.9692 18.8236C84.4941 18.8236 86.1556 19.0505 86.531 19.541C86.7518 19.8295 86.7247 19.6726 87.1258 19.754C87.7164 19.8737 88.5104 20.0039 88.8163 20.5823C89.8559 20.5823 90.6269 21.5694 92.1472 21.8616C92.4421 21.9182 92.3882 22.1372 92.6362 22.3226C92.9361 22.5467 93.5323 22.769 94.0433 22.769C94.1386 23.1785 94.6906 23.3815 95.0475 23.5232C95.8226 23.8306 95.0949 23.9171 96.543 24.4039C97.1806 24.6184 96.8839 24.3547 97.2597 24.8756C97.5467 25.2732 97.9235 25.2851 98.0868 25.5216C98.3333 25.8792 98.8131 26.0444 99.2009 26.2137C99.4834 26.337 99.2842 26.3766 99.4199 26.6127C99.6651 27.0402 100.174 26.3614 100.174 27.1419C100.426 27.1474 100.618 27.2785 100.758 27.4138C101.318 27.9554 100.789 27.8178 101.394 28.1082C101.539 28.1777 101.554 28.2099 101.661 28.3171C101.813 28.4712 101.973 28.6222 101.98 28.901C102.548 28.901 103.108 29.2227 103.251 29.6262C103.38 29.9911 103.508 29.7933 103.799 30.0763C103.965 30.2369 104.159 30.4136 104.166 30.7076C104.896 30.8779 105.773 31.8718 106.25 32.4723C106.413 32.6775 106.706 33.0093 106.732 33.3218C106.808 33.3236 107.222 33.3765 107.267 33.4046C107.534 33.5693 107.081 33.7497 108.822 33.7497H117.519C119.46 33.7497 121.248 33.6977 123.174 33.7023L125.267 33.6567C125.541 33.6535 125.625 33.6047 125.929 33.6061C126.792 33.6098 127.942 33.5794 128.639 33.417C128.476 33.1943 128.082 33.4543 127.717 32.3899C127.472 31.6735 127.567 31.5778 127.304 31.4724C127.105 31.3923 127.044 31.3606 126.919 31.1917C126.76 30.9768 126.603 30.5383 126.595 30.1849C126.269 30.1775 126.164 30.0505 126.024 29.8531C125.745 29.4592 125.535 28.6779 125.065 28.4832C124.675 28.3222 124.926 28.463 124.521 27.6485C124.256 27.1161 124.104 27.3581 123.886 26.8575C123.82 26.7065 123.799 26.6969 123.686 26.5823C123.534 26.4291 123.345 26.2616 123.078 26.2395C123.063 26.0582 122.869 25.6141 122.793 25.4798C122.675 25.2727 122.515 24.9805 122.223 24.9561C122.189 24.5461 121.734 24.0873 121.32 24.0528C121.315 23.8361 121.267 23.7744 121.166 23.6368C121.077 23.5163 121.017 23.4229 120.902 23.3308C120.397 22.9268 120.566 23.4008 120.407 22.6852C120.349 22.4262 120.184 22.1243 119.964 21.9872C119.843 21.9113 119.675 21.9076 119.586 21.7944C119.314 21.4465 119.496 21.3043 118.908 21.0471C118.637 20.9284 118.728 20.8359 118.532 20.5676C118.435 20.4355 118.379 20.3794 118.246 20.2823C118.142 20.2059 117.924 20.1153 117.881 20.0771C117.792 19.997 117.775 19.8166 117.7 19.6873C117.575 19.4683 117.289 19.252 116.947 19.252C116.941 18.9617 116.79 18.7693 116.596 18.605C116.574 18.5862 116.423 18.4753 116.405 18.4642C116.147 18.3124 116.156 18.4679 116.036 18.1679C115.86 17.728 115.395 17.4477 114.997 17.2103C114.834 17.1132 114.756 17.0603 114.597 16.9443C114.432 16.8233 114.354 16.7879 114.334 16.5426C114.078 16.5366 113.894 16.394 113.761 16.2605C113.606 16.1059 113.527 15.8045 113.416 15.7014C113.318 15.6099 113.269 15.6522 113.117 15.5735C112.825 15.4226 112.536 15.1525 112.528 14.7839C112.191 14.7839 111.988 14.7278 111.75 14.6118C111.117 14.3044 111.548 14.0656 111.029 13.8594C110.604 13.6906 110.482 13.4628 110.295 13.073C108.754 13.073 110.162 12.5977 109.012 12.5977C108.917 12.1886 108.092 11.751 107.681 11.7423C107.632 11.1505 106.634 11.0249 106.406 10.8312C106.399 10.8247 106.389 10.8141 106.383 10.8072L106.222 10.5873C105.877 10.2141 105.317 10.1644 105.095 9.95594C104.79 9.67018 105.066 9.57125 104.053 9.23994C103.78 9.15067 103.581 9.1433 103.309 9.08026C103.296 8.4793 102.616 8.22437 101.978 8.22437C101.932 7.67034 100.919 7.45821 100.461 7.36572L100.384 7.34731C100.072 7.26126 100.243 6.98931 99.5008 6.70954L98.6761 6.48912C98.3959 6.41964 98.5965 6.53054 98.4571 6.32807C98.2529 6.03219 97.9529 5.92359 97.5651 5.79383L96.371 5.51497C96.1042 5.37785 96.376 5.2375 95.0604 4.73409C94.5581 4.54174 94.0231 4.4106 93.5341 4.16902C93.4062 4.10597 93.3184 4.04247 93.2291 3.95136C93.0994 3.81838 93.2705 3.91869 93.1049 3.83816C92.7921 3.68585 90.9586 3.67619 90.5731 2.94776C89.959 2.94776 88.7059 2.69974 88.1852 2.38913C87.8374 2.1816 88.0725 2.06012 87.532 2.04401C87.2219 2.03481 86.9381 1.98511 86.6428 1.93542C86.1018 1.84523 85.5337 1.76608 84.9951 1.58708C84.6468 1.47158 84.5512 1.48262 84.3952 1.18858C83.483 1.18858 81.3233 0.915711 80.4571 0.612008C79.8324 0.392973 80.2409 0.192345 78.9649 0.367205C78.4708 0.434848 77.819 0.389752 77.3475 0.299562C77.1731 0.26643 77.2012 0.277014 77.0568 0.210291C76.9188 0.14633 76.8792 0.14817 76.8396 0C76.0319 0 75.2241 0 74.4159 0L70.2326 0.0460156C69.958 0.0464758 69.9087 0.0892703 69.6654 0.0966328L67.8088 0.0934117C67.5448 0.0966328 67.5061 0.141728 67.2426 0.144489C66.6446 0.151852 66.0323 0.110437 65.4347 0.142648L62.4902 0.239741C61.5233 0.241122 60.4405 0.20477 59.4924 0.282996C58.6925 0.349259 58.9179 0.234219 57.7895 0.433467L55.7976 0.865094C55.1564 1.0151 54.4875 1.1688 53.8399 1.33123L48.0627 2.87276C47.0691 3.15575 45.8335 3.53584 44.8647 3.90443C44.7299 3.9555 44.5809 4.02913 44.4309 4.08849C43.2179 4.56659 43.9521 4.63193 43.1489 4.66C42.9603 4.66644 42.7873 4.71614 42.6254 4.75387L42.6259 4.75065Z" fill="#E11D87"/>
</svg>
