<svg width="430" height="1040" viewBox="0 0 430 1040" fill="none" xmlns="http://www.w3.org/2000/svg">
<mask id="path-1-inside-1_1_347" fill="white">
<path fill-rule="evenodd" clip-rule="evenodd" d="M16.2384 36.0634C16.1864 38.4073 14.7027 38.3479 12.6365 38.5679C10.3901 38.8055 9.17328 38.9487 6.56979 38.9487C6.12607 44.3386 -4.32257 44.8172 -6.32288 45.8058C-7.52582 46.3996 -7.57434 47.4161 -8.72876 48.4326C-9.63358 49.2326 -10.7498 49.7041 -11.9216 50.2665C-13.6549 51.0979 -17.9155 52.2995 -20.2902 52.2995C-20.9246 55.0521 -22.8521 55.8905 -25.3031 56.9908C-27.4073 57.934 -30.1426 58.7933 -33.1829 58.7933C-34.9093 62.0804 -37.4018 63.3694 -40.8547 64.7736C-42.4147 65.4094 -42.8376 65.2731 -43.6939 66.604C-46.1553 70.443 -51.8372 72.1442 -56.4618 72.1442C-56.7911 73.5659 -56.8015 73.999 -57.5122 75.054C-59.353 77.7821 -62.8786 79.0012 -66.4875 79.0012C-66.4875 85.3448 -69.7878 81.0727 -72.1035 82.6935C-73.4659 83.6436 -72.5854 84.0139 -73.2926 85.495C-73.9513 85.6487 -75.7262 85.7186 -76.1734 86.2041C-77.47 87.6084 -74.967 87.1997 -76.6761 88.5585C-77.1233 88.9113 -82.053 89.4667 -82.9612 89.4667C-83.8487 93.3092 -86.4487 94.2663 -89.4024 95.6077C-90.3835 96.0548 -91.2016 97.6128 -93.4966 99.4187C-99.3137 103.991 -105.751 107.607 -110.99 112.829C-113.565 115.393 -111.357 114.719 -115.132 116.231C-116.758 116.885 -118.436 118.53 -119.129 120.144C-120.27 122.798 -119.084 121.677 -121.761 122.907C-123.848 123.864 -126.073 126.166 -126.292 128.803C-137.042 128.803 -129.006 132.607 -136.321 132.775C-136.47 134.598 -137.191 135.587 -138.193 136.663C-141.306 140.02 -142.086 138.029 -143.303 140.537C-144.253 142.496 -145.837 144.107 -147.119 145.714C-148.877 147.918 -150.891 149.675 -153.297 151.397C-155.478 152.955 -155.499 151.589 -156.539 154.265C-158.293 158.767 -161.881 158.327 -162.744 159.92C-163.392 161.118 -163.867 162.533 -165.046 163.735C-167.542 166.274 -168.852 164.587 -169.955 167.811C-170.648 169.834 -171.75 172.08 -173.116 173.645C-173.629 174.235 -174.007 174.616 -174.621 175.018C-175.692 175.72 -175.602 174.993 -176.17 176.701C-177.106 179.513 -179.155 182.29 -182.518 182.573C-182.761 185.487 -185.912 189.001 -188.966 189.071C-189.885 193.046 -190.367 199.051 -195.771 199.176C-195.816 201.241 -197.151 202.896 -198.271 203.875C-199.664 205.09 -202.056 205.307 -202.5 207.19C-202.947 209.076 -203.218 211.322 -204.296 212.957C-205.367 214.581 -206.431 215.776 -209.021 215.776C-209.021 220.39 -210.91 224.809 -215.466 225.881C-216.239 229.228 -216.838 233.867 -220.395 235.351C-221.91 235.984 -222.059 235.578 -222.399 237.304L-223.931 242.257C-224.812 244.109 -226.223 246.037 -228.719 246.093C-228.719 248.328 -229.013 250.777 -229.433 252.587C-231.152 252.185 -231.35 252.328 -231.891 254.075C-232.13 254.85 -232.192 255.427 -232.262 256.234C-232.695 261.218 -233.704 256.803 -238.956 265.724C-240.079 267.632 -242.326 273.277 -242.326 276.043C-244.794 277.238 -245.799 278.415 -246.884 281.192C-247.831 283.609 -248.77 285.831 -248.77 289.034C-252.854 291.79 -253.759 294.148 -254.989 299.004C-255.402 300.625 -255.183 302.092 -256.279 303.119C-257.562 304.317 -257.725 304.289 -258.685 306.109C-260.706 309.951 -262.02 314.643 -262.02 319.348C-266.572 320.417 -267.594 327.246 -268.326 331.399C-268.711 333.596 -268.041 335.018 -269.737 336.475C-273.619 339.811 -275.273 350.486 -275.273 355.795C-277.346 356.899 -277.565 357.399 -278.625 359.638C-279.499 361.482 -279.929 363.173 -280.431 365.395C-280.861 367.291 -281.503 370.044 -281.669 371.728C-281.79 372.95 -281.735 374.292 -281.974 375.029C-282.369 376.237 -282.997 376.206 -283.728 377.233C-286.425 381.009 -288.526 395.768 -288.526 402.709C-290.696 403.219 -291.449 405.978 -292.028 407.843C-294.922 417.142 -297.339 436.592 -297.834 447.1C-297.924 449.021 -298.167 457.995 -298.746 459.532L-300.192 462.766C-302.539 472.435 -303.048 484.997 -303.565 495.092L-304.23 503.444C-304.373 504.73 -304.282 506.403 -304.275 507.73L-304.948 520.763C-304.969 520.938 -304.986 521.113 -305 521.287V532.259C-305 533.223 -303.915 534.509 -303.634 535.571C-303.249 537.017 -303.052 537.848 -302.799 539.42L-300.802 556.173C-300.226 560.582 -300.32 565.029 -299.966 569.405L-299.266 578.082C-299.186 579.598 -299.353 581.258 -299.27 582.777C-299.179 584.454 -298.892 585.002 -298.902 587.098L-298.545 596.121C-298.59 606.904 -298.195 600.142 -295.914 607.907C-294.381 613.115 -293.785 618.324 -293.116 623.853C-292.815 626.344 -292.229 629.935 -292.107 632.579C-291.958 635.859 -292.433 635.695 -290.481 637.798C-287.573 640.931 -286.699 650.289 -286.079 654.656C-285.704 657.297 -285.302 660.825 -285.302 663.616C-280.175 663.731 -281.721 671.619 -281.721 676.247C-278.84 677.784 -278.202 680.9 -277.294 684.054C-276.369 687.261 -275.62 691.072 -275.266 694.642C-274.912 698.23 -272.732 696.043 -270.655 702.624C-269.764 705.446 -268.828 709.813 -268.828 713.414C-266.901 713.868 -266.294 715.203 -265.473 716.89C-264.703 718.483 -264.138 720.376 -263.667 722.287C-263.181 724.24 -262.685 726.021 -262.453 727.918C-262.034 731.352 -261.326 729.968 -259.718 732.382L-255.957 739.058C-255.548 739.851 -255.263 740.755 -254.865 741.569C-248.295 755.053 -241.909 772.201 -233.274 784.046C-232.241 785.461 -231.218 786.854 -229.076 787.033C-229.076 791.57 -226.746 797.645 -224.326 799.57C-222.725 800.845 -223.016 799.639 -222.097 801.655C-217.445 811.876 -216.086 808.722 -214.959 812.148C-213.847 815.537 -212.456 818.171 -209.669 820.169C-208.608 820.93 -208.723 821.283 -208.099 822.918C-207.09 825.555 -205.45 830.068 -202.212 830.341C-202.136 833.872 -198.884 836.468 -195.768 837.198C-195.768 841.533 -193.892 845.592 -190.568 846.755C-188.817 847.366 -189.386 846.846 -188.685 848.47C-188.231 849.522 -187.891 850.15 -187.236 850.982C-185.929 852.638 -183.797 852.917 -182.709 854C-182.258 854.447 -181.048 857.947 -180.48 858.971C-179.388 860.937 -178.448 862.303 -176.697 863.459C-174.95 864.616 -174.475 869.96 -169.258 870.397C-168.831 875.563 -163.933 876.07 -162.862 877.303C-162.494 877.725 -162.255 878.752 -161.822 879.503C-160.629 881.557 -158.612 883.894 -156.008 884.111C-155.769 887.003 -152.555 890.542 -149.564 890.608C-148.849 893.7 -146.156 897.179 -142.758 897.465C-142.693 900.48 -139.184 903.721 -136.314 903.959C-136.036 907.299 -132.525 910.533 -129.152 910.816C-129.089 913.59 -126.642 914.91 -124.711 916.08C-121.761 917.869 -117.847 918.966 -116.786 922.529C-115.999 925.169 -116.463 923.51 -113.988 924.761C-112.106 925.707 -109.662 927.835 -109.457 930.297C-107.651 930.297 -106.195 930.329 -104.791 930.657C-102.326 931.234 -103.321 931.37 -103.373 933.546C-101.057 934.091 -100.517 933.158 -99.7643 934.964C-99.331 936.005 -98.8041 937.018 -97.7363 937.972C-96.0688 939.456 -93.0528 940.7 -90.1234 940.766C-89.9085 941.699 -89.756 942.331 -89.2602 943.145C-87.8631 945.426 -85.7103 947.201 -82.9612 947.264C-82.9612 952.179 -79.6991 949.506 -76.8737 950.872C-75.7262 955.843 -76.9084 953.258 -71.7326 955.794C-69.7358 956.772 -67.0075 958.386 -66.4909 960.618C-64.6917 960.618 -64.6328 960.656 -63.2669 960.978C-62.3621 963.189 -64.6016 963.863 -56.4618 963.863C-56.285 966.011 -53.8444 967.405 -52.2185 968.25L-47.7118 970.207C-46.1483 970.898 -47.3894 969.704 -46.4188 971.429C-45.507 973.043 -46.0096 972.603 -44.363 973.689C-43.2918 974.398 -42.5464 974.926 -41.3747 975.366C-38.8371 976.32 -35.5056 976.756 -34.2714 977.232C-32.9367 977.745 -32.6525 979.848 -29.4874 981.43C-22.9249 984.717 -21.3822 982.286 -19.8499 985.074L-17.4475 987.344C-15.5131 988.5 -13.7035 989.307 -11.0584 989.926C-9.80692 990.219 -7.84128 990.243 -6.88794 991.134C-6.60367 991.4 -6.70767 991.351 -6.38873 991.711C-6.00739 992.144 -5.77515 992.423 -5.33835 992.818C-3.91699 994.1 -1.53189 995.183 0.360931 996.098C7.91833 999.755 27.5329 1005.95 31.8212 1009.5C32.8855 1010.39 33.2981 1010.66 34.8719 1010.76C36.7093 1010.87 37.7528 1011.01 39.1602 1011.13C40.6059 1014.16 39.3891 1013.39 46.9985 1014.06C50.6905 1014.38 49.1513 1015.79 54.0913 1017.74C57.8319 1019.21 67.4 1020.87 72.4683 1020.87C73.3593 1024.24 81.3812 1025.67 84.3834 1026.19L95.5046 1027.97C95.5531 1028 96.6035 1028.78 96.7491 1028.88C101.332 1032.14 122.895 1034.23 129.052 1034.23C129.606 1040.94 149.037 1036.89 156.779 1038.04C160.616 1038.62 164.547 1038.49 168.461 1038.54C170.6 1038.57 171.665 1038.93 174.174 1038.92C182.162 1038.88 190.315 1039.65 198.171 1039.64C202.23 1039.63 206.293 1039.66 210.349 1039.64C212.637 1039.62 213.726 1039.93 215.518 1040H254.449C272.552 1039.68 290.583 1038.75 298.14 1036.44C302.917 1034.98 299.752 1034.04 307.393 1033.86C311.123 1033.76 314.846 1033.27 318.209 1032.85C322.476 1032.31 329.289 1031.55 332.814 1029.52C334.572 1028.51 333.899 1027.49 336.756 1027.36C342.469 1027.1 354.207 1025.5 358.866 1022.93C363.418 1020.43 357.369 1021.73 365.623 1020.36C369.062 1019.79 372.293 1018.97 375.132 1018.03C380.038 1016.4 380.086 1014.31 382.974 1014.02C386.416 1013.68 389.821 1012.98 392.923 1012.14C395.371 1011.48 399.843 1010.41 400.512 1007.52C402.179 1007.52 403.795 1007.61 405.355 1007.34C408.79 1006.73 406.679 1006.49 407.92 1005.24C409.189 1003.97 414.989 1003.91 416.989 1003.91C418.029 999.417 426.003 997.418 430.239 997.418C433.113 993.097 441.786 990.673 446.713 990.561C447.548 988.808 447.312 988.72 449.001 987.456C450.228 986.534 451.271 986.052 452.745 985.454C454.291 984.829 456.53 984.571 457.317 983.205C457.654 982.618 457.331 982.95 457.775 982.223C459.418 979.533 464.327 978.168 467.225 977.675C468.213 977.507 469.111 977.549 469.69 977.273C471.465 976.432 470.577 974.21 478.083 971.656C484.24 969.56 482.739 972.219 483.786 969.103C484.503 966.962 486.032 965.683 488.192 964.883L492.556 963.87C494.584 963.193 493.309 962.022 494.782 960.339C495.517 959.504 497.278 958.505 498.314 958.124C499.93 957.534 501.095 957.362 503.289 957.362C503.681 952.647 508.572 950.904 513.318 950.505C513.471 943.697 525.968 944.434 526.568 937.154C529.778 937.085 533.304 933.86 533.373 930.661C537.807 930.661 541.704 928.631 543.031 925.596C544.713 921.75 543.33 925.302 547.15 922.165C548.422 921.121 549.802 919.416 549.847 917.306C555.328 917.306 556.292 917.285 556.292 914.058C557.657 913.736 557.716 913.698 559.516 913.698C559.977 911.7 560.667 910.98 561.811 909.513L568.193 902.593C570.949 899.844 575.053 896.246 578.472 894.545C581.04 893.266 580.812 887.457 586.376 886.993C586.441 884.045 589.898 880.562 592.824 880.499C593.566 877.292 596.096 873.939 599.629 873.642C599.695 870.694 603.151 867.211 606.073 867.148C606.073 862.562 608.528 857.14 612.879 857.042C612.948 853.892 616.2 850.618 619.323 850.549C619.916 847.985 622.526 842.909 624.246 841.435C626.891 839.171 625.38 839.849 627.037 837.39C630.049 832.919 631.852 835.406 632.687 832.615C633.883 828.608 634.414 825.712 638.328 823.864C639.874 823.134 639.035 823.721 639.867 821.807C640.886 819.46 642.023 817.039 643.607 815.111C644.474 814.056 645.015 814.199 645.59 813.5L648.041 808.753C649.979 805.899 652.281 803.412 653.949 800.268C656.916 794.665 654.611 795.297 657.336 793.216C660.417 790.861 661.014 786.935 662.539 784.025C663.049 783.054 663.631 782.939 664.369 782.257C668.457 778.492 671.823 769.486 674.354 764.17C677.331 757.921 682.479 745.852 685.863 740.402C686.276 739.739 686.844 738.823 687.309 738.247C688.962 736.204 688.785 737.594 689.614 733.353C690.113 730.803 691.385 727.743 692.613 725.55C694.044 722.989 695.206 724.641 695.573 721.676C696.118 717.257 696.974 711.332 699.837 707.93C700.496 707.148 701.182 707.015 702.052 706.554C702.052 702.006 704.178 691.628 706.996 688.082C707.97 686.859 708.213 687.467 708.785 686.276L710.785 674.941C711.648 671.455 712.477 667.839 715.663 666.141C715.663 660.811 716.46 656.305 717.244 651.495C717.732 648.48 719.046 640.62 722.111 639.8C722.111 635.059 723.009 629.404 723.511 624.975C724.586 615.543 726.104 605.849 727.928 596.589C728.642 592.956 729.422 586.847 731.537 583.626C732.698 581.859 731.936 578.62 732.189 576.346L733.201 560.767C733.215 558.891 733.489 558.786 733.568 557.169L734.272 541.638C734.324 539.822 734.633 539.64 734.657 537.695C734.692 534.897 734.865 530.918 735 526.569V510.637C734.827 507.493 734.504 504.709 733.946 502.655C733.714 501.809 733.541 501.383 733.079 500.639L732.365 499.553C732.334 499.472 732.289 499.382 732.261 499.294C732.001 498.477 731.936 474.598 731.211 469.679L727.935 431.482C727.62 429.12 728.652 426.528 726.403 426.528C677.935 426.528 630.919 428.331 582.434 428.331L536.58 428.345C534.614 428.345 534.275 428.058 532.656 427.971C529.969 427.824 526.8 427.971 524.058 427.971C520.779 427.975 518.91 427.59 515.825 427.608L483.231 425.805C483.744 424.729 483.948 420.042 483.948 418.229C483.948 414.879 482.572 413.268 480.367 412.095C480.367 407.375 478.312 390.276 473.562 388.998C473.562 385.414 472.897 381.893 471.968 379.056C469.978 372.968 468.289 373.872 467.315 372.199C466.771 371.267 466.837 368.566 466.556 367.19C466.244 365.671 465.759 363.868 465.377 362.604C464.535 359.827 463.128 356.459 460.312 355.799C460.312 352.669 459.342 350.36 458.375 348.009C457.303 345.403 456.159 343.671 453.868 342.448C453.868 338.179 451.337 332.793 447.423 332.706C447.049 328.172 444.976 322.967 440.618 322.6C440.618 313.64 435.117 313.448 434.174 312.494L432.146 306.238C431.095 304.32 429.951 302.968 427.368 302.752C427.233 301.121 426.055 299.472 425.143 298.497C423.985 297.261 421.919 296.719 421.076 295.738C419.839 294.298 419.132 289.457 414.115 289.038C414.056 286.411 412.042 284.528 410.122 283.319C407.653 281.768 408.26 282.561 406.676 279.935C405.487 277.968 403.414 275.896 400.865 275.683C400.768 271.282 393.117 268.072 390.06 265.641C388.496 264.397 388.177 262.982 386.344 262.168C383.723 261.009 382.187 259.594 380.991 257.096C380.173 255.388 381.001 256.052 378.831 255.664C375.077 254.993 371.097 253.17 370.781 249.342C368.344 248.769 366.268 248.713 364.34 247.532C362.746 246.554 360.95 244.863 360.752 242.484C356.727 242.484 350.345 240.2 348.196 237.094C345.839 233.696 340.139 234.565 337.477 229.493C332.703 229.493 325.908 227.338 322.986 225.33C321.201 224.103 321.915 223.583 320.868 222.773C320.136 222.203 318.122 222.182 317.055 221.924C305.569 219.164 295.703 213.875 281.046 210.934C276.952 210.113 273.014 209.223 268.722 209.278C266.091 209.313 265.876 209.275 264.16 208.101C256.886 203.127 213.123 202.418 200.296 203.49C198.59 203.634 196.334 203.508 194.576 203.501C192.198 203.49 191.484 203.889 189.223 203.882C182.928 203.868 169.668 204.937 163.923 207.259C162.09 208 161.802 209.034 160.179 209.261L149.568 210.113C144.697 210.76 139.802 211.336 135.33 213.09C133.663 213.743 132.359 214.085 131.912 215.779C125.62 215.779 114.831 217.152 110.47 220.16C108.938 221.215 109.118 222.332 107.225 222.664C106.161 222.853 105.953 222.853 104.83 223.139C101.644 223.946 98.6281 224.788 95.976 226.122C92.8837 227.677 92.7728 228.903 90.5888 229.357C89.4066 229.605 89.2472 229.584 88.2557 229.895C77.5401 233.266 81.2321 235.414 77.183 236.057C75.5051 236.323 74.3126 236.721 72.6798 237.294C70.3293 238.115 66.2595 239.543 66.0168 242.488C52.6908 242.488 65.8989 246.096 53.1241 246.096C51.9351 248.594 52.0668 249.254 49.4355 250.679C47.2966 251.839 45.4419 252.042 43.095 252.59C42.5645 254.885 41.7014 255.835 39.9507 257.002C38.1514 258.2 36.7336 258.825 34.8512 259.803C26.3889 264.205 32.6498 264.718 25.9036 266.304C25.9036 269.158 25.2484 269.553 19.816 269.553C19.5872 272.302 17.0808 274.779 15.4341 276.326C12.6019 278.977 9.20102 281.189 6.05325 283.473C-0.207611 288.025 -8.13596 293.114 -10.209 301.009C-10.788 303.213 -11.8003 302.249 -13.3984 303.569C-14.3414 304.352 -15.3918 305.393 -15.995 306.364C-17.035 308.051 -16.4387 308.847 -18.3315 309.784C-20.5225 310.863 -23.4553 313.154 -23.5177 316.103C-29.6295 316.239 -29.1026 323.955 -30.5412 325.625C-31.973 327.281 -36.7675 327.057 -36.7675 335.951C-41.0419 336.311 -43.4686 341.456 -43.5726 346.057C-45.8398 346.109 -47.2126 347.838 -48.1313 349.403C-49.2302 351.279 -50.0206 352.945 -50.0206 355.799C-52.4127 357.074 -53.5463 358.667 -54.5794 361.308L-56.3543 367.099C-56.753 369.499 -56.8258 368.752 -58.5383 370.313C-62.577 373.991 -62.525 382.295 -63.728 385.292L-65.1736 387.084C-68.987 391.709 -73.4867 409.258 -74.662 413.974C-75.338 416.685 -76.0348 419.542 -76.4785 422.249C-77.6676 429.522 -77.2516 423.888 -79.5015 429.669C-81.2903 434.259 -82.0287 441.545 -82.826 447.25C-83.0271 448.699 -83.1519 450.718 -83.2698 451.854C-83.7898 456.859 -83.5159 461.862 -84.2508 466.745C-84.6426 469.351 -84.7605 483.708 -84.7605 487.163C-84.7605 500.992 -84.75 516.369 -83.3842 529.44C-82.8191 534.855 -82.5383 539.878 -81.6335 544.635C-81.1377 547.248 -80.0076 555.967 -76.8806 556.809C-76.8806 559.981 -76.7212 562.947 -76.2081 565.511C-75.695 568.061 -74.6308 570.209 -74.0067 572.675C-73.5283 574.565 -73.6046 576.797 -73.1817 578.701C-72.7518 580.639 -72.1798 579.955 -71.2473 581.443C-68.148 586.393 -67.8638 592.914 -66.6261 598.437C-66.0888 600.837 -65.7283 599.384 -64.2757 601.123C-62.2858 603.509 -60.0498 611.508 -60.0498 615.99C-56.3786 618.467 -56.1082 619.913 -54.4199 624.391C-53.8271 625.963 -53.7716 628.772 -52.7316 629.91C-51.4559 631.308 -50.5892 631.846 -49.3689 633.739C-48.4987 635.091 -47.7188 637.096 -47.1294 638.699C-46.1588 641.347 -45.4515 640.142 -43.7147 642.475C-42.1027 644.638 -40.2723 649.769 -39.9949 653.161C-33.7098 653.301 -33.5642 664.21 -28.3226 666.662C-25.8161 667.836 -27.7297 666.547 -26.0207 669.394C-24.7484 671.51 -22.7342 673.159 -20.2971 673.732C-20.2971 678.574 -18.5395 682.189 -15.1942 683.384C-12.5421 684.334 -13.8421 685.228 -11.7968 687.541C-10.8053 688.665 -8.85358 690.181 -7.04742 690.332C-6.81168 693.192 -3.43857 696.591 -0.602814 696.825C-0.363617 699.732 3.31802 703.441 6.20233 703.682C6.43805 706.543 9.81116 709.939 12.6469 710.176C13.0733 715.343 17.9926 715.713 19.6011 717.243C21.1577 718.724 20.1523 718.717 23.3209 720.711C25.1236 721.847 26.0041 722.297 28.0218 723.195C30.646 724.365 28.0356 726.273 35.5653 730.028C38.8136 731.649 42.1832 732.955 43.088 736.881C45.8406 736.881 46.6622 737.098 48.8185 737.601C49.335 738.729 48.867 738.286 49.1755 739.767C50.59 739.885 50.8534 740.127 52.7567 740.127C53.6268 743.885 59.5964 746.1 63.2365 746.886C67.3445 747.773 64.9387 748.615 67.2059 750.134C68.4435 750.962 68.5544 750.232 69.9445 750.232C71.9864 750.232 71.7923 752.094 72.451 753.481C73.7996 753.481 75.3214 753.593 76.15 753.725C81.1905 754.522 77.6649 756.251 80.8543 756.925C82.182 757.204 83.1805 756.949 84.4562 757.264C86.2346 757.704 86.4634 759.419 88.9178 760.712C93.7469 763.258 99.4774 763.209 101.377 764.034C102.74 764.624 101.956 765.012 103.187 766.182C106.154 768.99 114.1 770.447 118.652 770.447C119.893 772.808 120.25 773.528 123.387 773.975C125.492 774.276 129.256 774.052 131.544 774.052C132.713 774.436 133.097 777.566 145.609 779.728C151.464 780.738 157.448 781.286 163.473 781.936L182.387 783.089L244.001 783.435C245.228 783.435 245.075 781.674 247.519 780.846C252.792 779.061 259.122 779.826 264.77 779.826C265.834 775.226 275.08 777.57 278.394 776.235C283.327 774.248 284.409 773.395 290.687 771.303C299.492 768.369 308.329 765.361 317.412 763.227C317.706 759.688 319.942 760.341 323.499 760.341C324.116 759.416 324.05 759.44 324.508 758.473C325.361 756.66 326.383 757.1 328.29 756.509C331.081 755.647 334.336 754.518 336.517 752.527C340.167 749.195 337.31 751.483 342.739 749.415C345.561 748.342 348.522 747.28 350.401 744.867C351.971 742.851 351.961 743.655 354.658 743.019C354.658 740.367 355.937 740.133 360.745 740.133C361.463 738.624 361.009 738.684 362.465 737.538C364.261 736.127 370.289 733.731 370.989 732.777C372.102 731.261 371.138 731.683 372.979 730.447L378.89 727.383C381.528 726.461 381.858 722.587 385.889 720.722C389.942 718.85 386.378 719.534 390.75 716.597C394.504 714.075 396.629 714.183 397.648 712.359C398.016 711.703 397.95 711.696 398.446 710.994C400.567 707.965 405.261 703.27 408.44 701.22C411.023 699.55 410.233 700.318 411.744 697.692C413.741 694.212 416.289 694.75 417.856 692.665C421.378 687.981 424.81 683.094 428.707 678.699C429.712 677.564 430.072 677.658 430.797 676.114C431.47 674.679 431.463 674.549 432.464 673.463C433.283 672.576 434.042 671.951 434.163 670.487C432.818 669.767 432.988 669.764 430.939 669.764C430.381 667.343 430.62 668.192 429.507 666.515C425.947 666.515 423.711 667.168 423.42 663.63C421.603 663.48 415.883 662.84 414.833 662.177C412.798 660.891 414.309 659.662 407.303 659.662C403.538 653.996 392.781 654.251 390.372 652.183C386.652 648.99 376.706 646.311 371.489 646.311C371.135 642.032 359.778 640.159 356.762 639.859C354.013 639.586 354.467 638.486 349.888 636.32C347.742 635.307 344.175 634.291 341.772 633.673C336.437 632.303 339.65 633.512 336.763 631.143C334.145 628.995 328.834 629.058 326.103 630.529C324.907 631.171 324.664 632.342 323.61 633.068C323.045 633.456 322.615 633.575 322.012 633.983C320.237 635.189 319.152 636.551 318.15 638.392C317.152 640.226 316.715 639.667 314.548 640.177C314.07 641.179 314.191 640.875 314.191 642.343C312.26 642.797 310.807 643.425 308.461 643.425C307.538 644.816 306.949 646.031 305.611 647.048C302.054 649.748 296.421 653.423 291.63 653.531C290.794 657.143 290.056 656.416 287.692 656.416C284.793 656.416 285.618 658.68 284.065 659.62L273.977 663.169C270.68 664.5 267.37 665.75 264.295 667.486C259.209 670.358 258.897 669.823 252.962 670.138C244.06 670.613 232.117 673.987 222.805 675.115C212.873 676.32 191.432 677.798 180.297 675.852C177.364 675.342 174.556 674.661 171.685 674.064C168.978 673.501 166.139 672.677 163.462 671.888C145.383 666.54 127.585 659.822 110.775 651.362C92.6722 642.248 93.3795 637.491 91.8922 636.467C91.5768 636.25 90.6547 635.961 90.1242 635.723C87.9784 634.759 85.2639 633.501 83.6346 631.797C82.0156 630.109 82.9135 630.396 80.778 629.264C78.7673 628.195 76.2609 625.893 76.039 623.214C72.7491 622.938 70.7627 619.791 69.4523 617.223C68.6723 615.697 67.2059 615.98 65.053 611.91C64.5919 611.04 62.9418 607.198 62.557 606.849C61.0733 605.497 59.7074 605.961 58.1925 603.666C56.3551 600.882 55.0447 596.558 52.5036 594.242C49.7926 591.772 50.3958 594.678 49.1825 590.012C47.0574 581.841 43.6704 585.006 42.9632 581.481C42.2491 577.932 41.2576 573.255 38.7165 570.604C36.2656 568.047 36.893 570.328 36.0784 565.685C33.7002 552.188 29.8834 549.383 29.8383 549.239C29.8383 543.912 28.9127 539.347 28.0183 534.834C27.1377 530.397 26.1151 525.643 25.2726 521.364C22.0209 504.859 18.1971 483.432 24.3089 467.164C28.4828 456.056 27.8172 441.186 31.2111 437.312C32.6533 435.663 32.8231 437.266 33.2842 433.986C34.0677 428.404 34.6848 422.089 39.864 419.325C39.864 416.562 40.9733 413.67 41.8851 411.62C42.835 409.478 43.719 407.938 45.4904 406.589C46.7177 405.657 46.8078 403.722 47.4803 402.101C49.2414 397.843 53.8417 389.791 57.565 387.363C60.1754 385.662 58.7644 387.545 59.9327 384.694C60.6053 383.056 61.8845 381.526 63.3474 380.558C66.3912 378.553 65.5002 379.706 66.048 375.699C66.7552 370.53 69.4489 376.374 69.591 369.887C73.8689 369.792 74.9158 365.23 76.2679 363.624L84.3383 358.765C85.2847 358 85.6418 356.875 86.5154 356.264C88.2106 355.072 89.885 354.587 91.2475 352.732C92.5197 350.999 92.3707 350.283 94.572 349.588C98.9886 348.191 103.086 345.106 106.917 342.539C108.054 341.777 109.541 340.618 110.519 339.675C111.694 338.539 112.304 337.132 113.84 336.524C117.019 335.27 118.898 335.029 123.304 333.069C127.11 331.375 130.976 329.897 134.349 327.599C136.242 326.31 136.817 326.233 139.074 325.866C140.152 325.691 140.638 325.562 141.719 325.286C146.146 324.147 150.233 323.487 153.877 321.297C154.813 320.731 155.049 320.204 155.739 319.924L172.635 317.465C195.606 313.462 220.86 306.517 244.094 315.663C251.589 318.611 261.345 316.655 268.722 320.074C270.708 320.997 270.812 322.23 271.779 322.768C273.156 323.533 275.371 323.494 276.747 323.896C280.006 324.846 282.724 325.573 285.435 327.05C288.86 328.919 287.071 330.03 294.14 330.191C294.14 332.318 294.608 332.629 296.729 332.992C298.341 333.268 299.156 333.436 300.945 333.436C301.479 335.741 303.801 336.887 305.545 338.183C309.161 340.869 313.324 343.189 317.061 345.707L325.382 351.757C327.597 353.588 329.694 355.53 330.786 358.22C331.563 360.137 330.394 358.827 331.882 359.641C332.412 359.931 332.627 359.847 333.383 360.295C335.386 361.482 336.582 363.508 337.612 365.412C338.337 366.753 337.588 365.887 338.995 366.544C340.548 367.27 340.784 367.47 341.862 368.71C342.479 369.419 343.374 370.561 343.769 371.48C345.267 374.987 346.32 372.549 349.78 379.856C350.279 380.908 350.404 382.298 351.247 383.07C352.588 384.3 352.255 383.136 353.673 385.316C355.271 387.772 355.694 388.932 356.689 392.019C358.326 397.099 356.89 394.056 359.754 398.314C363.917 404.504 368.632 411.536 368.632 419.678C368.632 427.639 361.903 425.739 356.474 426.193C350.768 426.668 344.747 426.927 338.545 426.892C335.477 426.874 333.053 427.258 329.597 427.258C326.491 427.258 323.381 427.241 320.275 427.244L280.873 426.916C279.746 426.822 278.439 426.923 277.298 426.909C273.551 426.867 263.653 425.837 261.719 424.205C260.447 423.133 261.695 423.587 259.729 422.606C257.354 421.418 255.413 419.287 254.754 416.433C250.217 416.332 252.352 414.735 251.173 413.548C250.178 413.069 246.968 412.465 245.443 412.465C245.096 408.287 239.14 405.971 235.414 405.971C234.238 400.892 231.5 404.071 229.149 402.178C227.794 401.088 228.823 400.878 227.718 400.012C227.09 399.519 223.038 399.069 222.081 398.838C209.015 395.715 211.095 394.622 208.245 393.291C206.262 392.365 188.877 392.617 185.632 392.617C178.3 392.617 164.61 393.19 159.926 396.665L158.359 398.335C157.035 399.827 154.955 399.31 152.878 399.666C151.988 399.82 151.01 399.991 150.299 400.312C147.644 401.514 149.852 403.079 142.659 403.079C141.047 406.467 139.66 408.06 134.907 409.342C134.373 409.485 133.85 409.517 133.42 409.646C133.33 409.674 133.226 409.691 133.143 409.726L132.3 410.32C132.2 410.432 131.756 411.19 131.6 411.42C130.387 413.254 128.92 414.575 127.35 416.157C125.509 418.012 123.852 419.759 121.682 421.271C121.092 421.683 121.217 421.603 120.59 421.977C118.946 422.958 118.985 423.318 118.194 424.977C117.248 426.965 114.516 429.588 112.218 429.78C112.089 431.317 110.408 434.311 109.701 435.544C107.922 438.643 106.799 438.747 105.728 440.201C104.608 441.717 103.325 445.479 101.232 448.298C100.24 449.632 100.254 449.482 98.9713 450.348C98.9713 457.527 95.8235 465.498 94.3155 471.639C90.7829 486.006 88.6197 498.561 94.9152 512.533C97.3974 518.046 96.3262 528.497 100.136 532.532C100.885 533.328 101.377 533.307 101.779 533.761C102.67 534.778 102.878 538.893 105.353 541.705C107.933 544.632 108.231 541.956 109.091 546.599C110.293 553.089 114.142 552.02 115.695 554.381C117.022 556.404 118.038 558.301 120.295 559.492C121.574 560.166 121.89 560.236 122.524 561.574C124.493 565.734 126.265 565.196 128.532 567.065C129.184 567.603 129.17 567.917 129.849 568.623C131.433 570.268 134.786 571.767 137.063 572.902C139.598 574.163 139.806 576.189 143.629 577.834C147.193 579.368 150.892 579.749 151.769 580.818C154.258 583.853 154.539 584.056 158.727 585.352C171.509 589.309 188.558 587.65 202.126 587.483L216.926 586.515C219.023 586.057 217.491 586.623 218.638 585.711C218.697 585.666 218.767 585.589 218.826 585.54C218.884 585.495 218.957 585.418 219.016 585.373C219.075 585.327 219.155 585.257 219.214 585.212C220.67 584.098 221.98 583.651 223.755 582.927C226.809 581.687 230.151 580.846 233.441 580.06C236.45 579.336 234.058 578.383 241.148 574.834C247.766 571.519 242.933 573.52 246.594 569.856C247.741 568.71 248.289 568.473 249.859 567.732C251.419 566.999 252.317 567.068 253.711 566.562C255.326 565.972 254.806 565.147 255.93 563.747C257.854 561.347 261.047 560.215 261.632 559.031C266.146 549.903 264.881 553.903 267.969 549.896L268.698 548.104C268.93 547.322 269.145 546.553 269.398 545.924C270.348 543.563 272.112 541.558 274.04 540.136C276.331 538.446 278.113 537.82 281.122 536.811C288.943 534.18 301.135 534.034 309.93 534.767C311.4 534.89 313.085 534.729 314.579 534.774C316.424 534.83 316.774 535.162 318.857 535.155C325.752 535.124 337.397 536.591 345.724 536.591H449.583C462.413 536.591 474.224 536.951 486.829 536.951C499.365 536.951 511.897 536.951 524.433 536.951C537.242 536.951 549.15 537.31 561.679 537.31C574.332 537.31 586.986 537.31 599.639 537.31L600.922 548.649C601.352 551.576 601.431 557.606 601.431 560.767C601.431 565.329 601.161 569.811 600.561 573.964C600.007 577.793 599.258 582.641 596.062 583.504C596.062 598.182 591.818 608.427 589.766 621.908C589.288 625.051 589.742 628.195 588.324 629.837C587.946 630.277 587.911 630.179 587.457 630.77C584.219 634.982 583.443 643.073 582.534 648.183C582.087 650.698 582.344 649.067 581.023 650.628C577.685 654.572 575.258 668.524 571.611 674.707C570.703 676.247 571.053 675.814 569.559 676.607C569.559 678.221 569.351 679.248 569.066 680.806C568.734 682.64 568.709 683.059 566.692 683.104L565.974 689.961C563.901 690.007 563.107 690.545 562.826 692.2C562.403 694.667 563.402 696.521 559.887 696.815C559.242 704.622 559.606 702.25 556.663 703.672C556.122 706.005 555.948 706.83 555.948 709.806C552.513 711.636 551.279 715.514 549.67 718.996C549.053 720.331 549.656 719.527 548.592 720.436C546.228 722.462 544.449 725.385 543.385 728.54C542.352 731.603 542.959 729.556 540.639 730.831C538.875 731.802 539.832 732.892 539.832 734.702C539.832 736.476 537.987 736.169 537.055 736.595C535.873 737.136 536.521 736.417 536.181 737.884C536.053 738.439 536.095 739.389 535.699 739.924C534.833 741.091 533.526 738.38 533.061 743.759C532.947 745.08 532.95 746.142 531.733 746.753C530.243 747.504 529.005 747.895 528.014 749.499C526.915 751.277 526.221 753.446 526.221 756.352C524.277 757.292 523.809 757.191 522.179 758.773C521.032 759.887 519.822 761.152 519.777 763.206C513.7 763.342 513.707 774.104 508.046 776.288C507.973 776.316 507.262 776.55 507.245 776.56C506.222 777.049 501.944 784.821 494.099 790.019C492.029 791.392 492.882 794.557 488.098 796.604C485.886 797.55 486.933 797.439 485.883 799.423C484.888 801.302 482.527 803.415 480.028 803.625C479.924 808.278 474.665 809.612 473.69 810.59C472.907 811.38 472.543 813.175 471.174 814.552C470.075 815.659 468.671 816.815 466.774 816.976C466.636 823.274 454.135 822.921 453.525 830.327C450.724 830.561 446.952 833.649 446.72 836.461C439.079 836.461 440.448 837.477 440.632 839.709C439.166 840.052 438.951 840.069 437.051 840.069C435.945 842.176 436.052 842.176 434.094 843.587C432.693 844.596 431.272 845.194 429.653 845.969C426.71 847.377 427.875 846.221 425.895 848.676L424.221 850.238C422.356 851.551 417.71 852.927 416.743 854.248C414.004 857.993 409.102 859.858 404.103 860.277C404.01 864.486 398.55 866.771 394.074 866.771C392.618 869.544 391.242 870.453 388.202 871.679C385.03 872.954 381.396 872.894 380.343 874.585C378.925 876.863 376.269 877.97 373.666 878.686C370.931 879.437 367.81 880.485 364.351 880.485L363.595 881.889C360.277 886.245 349.278 886.081 347.659 887.845C345.267 890.458 343.863 891.254 340.032 892.065L332.44 893.438C330.103 893.962 329.77 897.71 311.643 899.907C310.145 900.089 307.334 900.123 306.034 900.392C303.76 900.861 305.41 902.073 302.716 903.183C300.657 904.032 294.407 903.942 291.29 903.942C291.151 905.618 290.264 906.055 288.846 906.53C284.714 907.92 278.865 907.19 274.459 907.19C273.894 909.628 271.377 909.834 269.2 910.191C264.291 910.994 258.128 910.799 252.973 910.799C251.229 910.799 250.463 910.446 249.367 910.453C247.675 910.46 247.807 911.165 246.368 911.724C240.392 914.047 223.388 913.646 215.366 913.691L165.331 910.701C157.468 909.705 136.065 908.56 129.274 904.452L126.941 903.914C123.477 903.889 118.01 904.441 115.84 901.748C114.953 900.648 115.442 900.703 113.937 900.417C113.511 900.337 113.389 900.351 112.97 900.309C106.761 899.68 100.264 898.695 94.8181 896.225C93.1368 895.464 93.1819 894.58 91.9859 894.028C90.2525 893.232 76.7809 892.236 73.1512 888.107C71.7507 886.514 72.4753 886.741 69.6256 886.605C67.6011 886.507 63.1221 885.403 61.413 884.775C58.605 883.748 57.2287 882.707 56.0015 880.125C53.5609 880.069 50.2502 878.972 48.2673 878.176C46.2393 877.362 42.9597 876.157 42.7518 873.631C37.628 873.202 30.8887 869.988 26.3924 867.742L19.4139 863.585C17.4587 862.135 16.8278 860.581 15.5901 860.221C12.9901 859.463 10.7056 859.309 8.50421 857.622C7.34982 856.742 6.90955 855.104 6.23007 854.143C5.09647 852.543 1.89322 854.003 -1.75375 850.639C-2.30496 850.133 -2.49564 849.944 -2.88736 849.256C-3.5495 848.1 -2.95325 849.117 -3.32071 848.247C-4.177 846.217 -5.75433 846.863 -8.25037 845.997C-9.77225 845.47 -10.781 844.799 -11.7864 843.789C-12.9408 842.633 -13.187 841.421 -13.8283 840.073C-16.7126 840.073 -18.1374 839.503 -20.0441 838.396C-21.9438 837.292 -22.9596 835.905 -23.4969 833.579C-25.2961 833.579 -25.102 833.254 -26.7209 833.219C-26.7209 831.417 -25.5388 830.879 -28.3954 830.225C-29.8548 829.894 -31.9037 830.117 -32.9021 828.982C-34.5626 827.103 -34.5834 826.31 -36.9512 824.759C-39.7384 822.939 -39.1664 824.451 -40.508 821.486C-41.5446 819.201 -43.7355 817.2 -46.4188 816.976C-46.7307 813.186 -50.4956 810.992 -53.6503 810.189C-57.8727 809.116 -55.3871 809.874 -57.5052 806.856C-58.5141 805.421 -59.8488 804.401 -61.4781 803.643C-64.8512 802.071 -61.8698 803.255 -64.4629 799.793C-65.7872 798.026 -66.6123 797.673 -68.5918 796.737C-70.4291 795.867 -70.0894 794.288 -71.58 792.527C-72.4779 791.465 -74.454 790.051 -76.1422 789.907C-76.1422 788.157 -76.2705 787.242 -76.5791 785.653C-76.9777 783.588 -77.1406 783.333 -79.0092 783.77C-79.2727 782.631 -79.4599 781.3 -79.7268 780.161C-82.9127 780.092 -85.9149 776.417 -86.1714 773.305C-91.1219 772.889 -92.3352 767.632 -92.8136 767.003C-93.396 766.238 -94.0582 766.503 -95.1814 766.14C-96.0723 765.854 -94.7515 766.116 -96.2006 765.724V761.396C-97.3481 760.621 -97.4347 760.313 -99.4246 760.313C-99.4939 757.124 -102.025 754.826 -104.33 753.708C-107.88 751.986 -105.079 748.374 -109.707 744.329C-112.005 742.32 -112.196 744.783 -112.803 741.674C-113.368 738.789 -114.269 735.809 -116.689 734.041C-117.576 733.395 -117.691 733.28 -119.122 733.248C-119.968 723 -125.044 724.694 -125.955 722.091C-126.988 719.136 -128.437 710.484 -132.376 710.155C-132.376 708.241 -132.393 708.024 -132.733 706.547C-133.96 706.285 -133.96 706.585 -134.497 706.417C-136.38 705.831 -135.957 701.918 -135.957 700.053C-140.12 698.041 -139.181 699.588 -139.181 693.919C-140.224 693.364 -140.807 692.871 -142.405 692.836C-142.405 691.051 -142.862 689.476 -143.341 688.009C-144.301 685.064 -144.991 681.651 -146.617 679.042C-147.587 677.484 -148.697 677.019 -149.13 675.44L-150.42 670.965C-151.491 667.878 -152.59 665.415 -154.829 663.141C-156.057 661.894 -155.398 663.113 -155.727 661.16C-156.396 657.202 -157.783 652.78 -158.799 649.098C-159.707 645.804 -160.744 642.996 -161.787 639.841L-166.755 626.445C-167.393 624.989 -168.523 623.776 -168.967 622.536C-169.625 620.702 -170.412 601.361 -174.021 594.79C-174.614 593.711 -175.089 593.529 -175.404 592.935C-176.222 591.395 -175.81 584.045 -176.164 581.429C-177.162 574.048 -177.394 566.635 -178.212 559.317C-178.826 553.85 -179.412 545.135 -181.617 540.01C-182.22 538.606 -182.154 540.217 -182.154 536.944C-182.154 526.359 -181.755 516.568 -181.45 506.26C-181.398 504.534 -181.162 504.611 -181.079 503.025C-181.01 501.74 -181.131 500.335 -181.093 499.043L-180.008 484.26C-179.672 478.748 -178.861 468.348 -176.784 464.052C-176.247 462.938 -175.779 462.836 -175.689 461.184C-175.612 459.755 -175.779 458.819 -175.557 457.348C-175.21 455.026 -175.155 452.336 -174.961 450.009C-174.597 445.639 -173.997 440.477 -172.988 436.48C-170.364 426.06 -169.754 433.445 -168.655 424.97C-167.667 417.362 -164.789 398.681 -160.081 393.553C-158.643 391.984 -159.125 390.315 -158.674 388.118C-156.043 375.336 -153.176 377.324 -152.548 374.802C-152.028 372.692 -152.919 369.485 -151.99 367.428C-151.55 366.453 -151.987 367.04 -150.974 366.649C-149.439 366.055 -149.588 367.145 -148.998 362.502C-148.402 357.801 -148.53 360.172 -145.507 354.112C-143.057 349.2 -140.893 344.003 -139.437 338.574C-138.63 335.57 -137.555 337.421 -136.227 335.65C-135.638 334.861 -136.012 331.958 -135.6 330.173C-129.866 328.828 -133.239 328.535 -129.304 322.443C-128.323 320.92 -128.562 320.962 -127.113 319.959C-126.063 319.233 -126.635 320.225 -126.08 318.834C-125.314 316.903 -125.428 315.429 -124.388 313.322C-123.657 311.838 -123.584 311.684 -122.457 310.577C-121.033 309.179 -121.116 309.672 -119.486 308.882C-119.486 307.234 -119.712 304.827 -118.786 303.451C-117.729 301.882 -118.599 303.136 -117.587 303.021C-115.94 302.832 -116.328 303.003 -116.023 300.824C-115.833 299.451 -115.902 298.036 -115.902 296.614C-113.378 295.395 -110.931 294.274 -109.735 291.284C-109.034 289.537 -110.081 290.271 -108.691 289.446C-105.692 287.668 -106.233 290.466 -106.233 283.987C-105.162 283.417 -104.278 282.939 -102.652 282.904C-102.427 280.155 -99.3657 276.281 -96.5646 276.047C-96.5646 268.48 -95.2334 269.752 -93.3405 269.913C-93.0563 268.683 -92.6576 267.761 -92.6264 266.304C-89.4925 266.042 -86.2546 262.78 -86.1818 259.447C-78.614 257.669 -80.1393 246.617 -72.9321 246.456C-72.8246 241.527 -67.1877 240.514 -66.2899 239.075C-65.0314 237.06 -64.6224 234.859 -61.1904 233.385C-56.909 231.547 -61.128 232.634 -57.6994 230.045C-55.5084 228.39 -53.0471 227.492 -50.7001 226.273C-49.0084 225.392 -49.5353 223.768 -47.7846 221.994C-46.6025 220.795 -45.3822 219.44 -43.2086 219.391C-43.0942 214.288 -36.8264 212.96 -36.4034 212.534C-35.1866 209.981 -37.18 209.666 -32.8085 209.663C-30.2084 209.659 -29.9554 208.692 -29.9554 206.04C-28.2116 205.894 -26.3535 204.482 -25.3759 203.438C-23.8817 201.845 -24.1244 199.889 -21.8918 199.368C-18.1096 198.485 -13.5856 197.496 -13.4816 192.689C-9.17596 192.689 -3.4559 190.545 -3.09537 186.192C-0.942535 186.192 1.95563 185.211 3.29724 184.337C5.24899 183.062 6.34097 181.899 6.93033 179.339C10.553 179.339 19.1297 176.921 19.4625 172.845C22.5513 172.845 25.0681 171.867 26.9783 170.676C30.7015 168.356 28.0356 166.48 32.1332 165.764C36.0749 165.073 43.9443 163.343 45.9654 159.494C51.0129 159.494 58.6813 156.86 59.5757 153C62.7893 153 67.2198 152.249 69.799 151.393C73.1964 150.265 74.9539 149.193 76.4065 146.143C81.8943 146.143 87.8535 144.865 92.8387 142.853C94.9048 142.018 95.4318 141.609 96.4614 139.646C100.14 139.646 108.889 141.117 108.993 136.397C111.919 136.397 118.187 137.078 120.683 135.545C122.087 134.682 121.99 134.078 122.604 132.789C124.441 133.676 129.672 133.156 132.286 133.163C135.659 133.17 138.447 132.272 139.078 129.54C149.023 129.54 178.23 126.47 187.216 124.639C190.499 123.972 192.395 123.046 195.661 123.046C198.767 123.046 203.43 122.767 206.352 123.099C209.712 123.48 213.525 123.123 217.13 123.427L247.939 125.223C252.56 125.481 263.05 126.229 266.864 128.167C268.576 129.041 267.904 129.481 271.204 129.17C274.792 128.835 279.531 128.681 283.268 129.324C285.618 129.729 287.203 130.256 287.705 132.429C291.217 132.429 295.606 133.337 298.806 133.872C305.711 135.028 312.87 136.331 319.266 138.518C320.996 139.108 322.383 139.436 324.085 140.156C324.934 140.516 325.489 140.771 326.283 141.19C327.43 141.794 327.479 141.641 327.812 142.895C331.767 142.895 344.289 144.617 347.118 148.34C348.782 150.531 348.577 149.339 351.6 149.958C356.051 150.866 362.035 151.854 364.34 156.245C372.175 156.245 377.985 163.738 389.443 165.956C391.665 166.386 391.259 168.049 393.128 169.457C395.388 171.158 399.881 172.845 403.732 172.845C404.45 175.954 408.61 177.494 411.3 178.57C417.142 180.904 411.657 181.56 422.57 185.256C427.375 186.884 425.139 184.882 427.972 188.837C430.135 191.855 432.974 191.945 434.205 193.741C436.063 196.455 439.679 197.709 442.601 198.995C444.73 199.931 443.229 200.231 444.251 202.023C446.099 205.268 449.933 200.116 449.933 206.04C451.833 206.082 453.279 207.078 454.332 208.105C458.558 212.216 454.572 211.172 459.13 213.376C460.222 213.903 460.333 214.148 461.138 214.962C462.289 216.132 463.495 217.278 463.543 219.395C467.825 219.395 472.044 221.836 473.122 224.9C474.096 227.67 475.06 226.168 477.254 228.316C478.502 229.535 479.969 230.877 480.017 233.109C485.519 234.401 492.133 241.946 495.728 246.505C496.956 248.063 499.16 250.582 499.354 252.953C499.933 252.967 503.047 253.369 503.386 253.582C505.404 254.833 501.986 256.202 515.111 256.202H580.649C595.275 256.202 608.753 255.807 623.268 255.842L639.038 255.496C641.108 255.472 641.739 255.102 644.03 255.112C650.534 255.14 659.204 254.91 664.453 253.677C663.222 251.986 660.254 253.959 657.505 245.88C655.658 240.441 656.375 239.714 654.392 238.914C652.891 238.307 652.434 238.066 651.491 236.784C650.291 235.152 649.109 231.823 649.05 229.141C646.589 229.085 645.798 228.121 644.744 226.622C642.644 223.632 641.063 217.7 637.516 216.223C634.577 215 636.473 216.069 633.419 209.886C631.422 205.845 630.274 207.682 628.635 203.882C628.139 202.736 627.976 202.662 627.127 201.793C625.983 200.629 624.558 199.358 622.547 199.19C622.433 197.814 620.97 194.443 620.394 193.423C619.507 191.851 618.3 189.633 616.103 189.448C615.846 186.335 612.417 182.853 609.297 182.591C609.259 180.946 608.899 180.477 608.133 179.433C607.464 178.518 607.009 177.809 606.143 177.11C602.34 174.043 603.612 177.641 602.413 172.209C601.976 170.242 600.735 167.951 599.078 166.91C598.162 166.334 596.901 166.306 596.231 165.446C594.179 162.806 595.552 161.726 591.118 159.773C589.076 158.872 589.763 158.17 588.282 156.134C587.551 155.131 587.131 154.705 586.133 153.968C585.343 153.388 583.703 152.7 583.38 152.41C582.708 151.802 582.576 150.433 582.018 149.451C581.072 147.788 578.915 146.147 576.343 146.147C576.294 143.943 575.154 142.482 573.698 141.235C573.531 141.092 572.394 140.25 572.252 140.166C570.307 139.014 570.377 140.194 569.472 137.917C568.148 134.577 564.643 132.45 561.644 130.648C560.417 129.91 559.828 129.509 558.632 128.629C557.387 127.71 556.801 127.441 556.645 125.579C554.718 125.534 553.331 124.451 552.326 123.438C551.161 122.264 550.568 119.976 549.733 119.193C548.994 118.498 548.623 118.82 547.476 118.222C545.278 117.077 543.101 115.026 543.038 112.228C540.497 112.228 538.969 111.802 537.173 110.922C532.406 108.588 535.654 106.775 531.74 105.21C528.541 103.928 527.615 102.199 526.208 99.2406C514.594 99.2406 525.209 95.6321 516.539 95.6321C515.821 92.5267 509.605 89.2047 506.51 89.1384C506.139 84.6462 498.62 83.6925 496.9 82.2219C496.845 82.173 496.772 82.0927 496.723 82.0403L495.517 80.3705C492.917 77.5376 488.694 77.1603 487.02 75.5779C484.721 73.4087 486.805 72.6577 479.164 70.1426C477.112 69.4649 475.608 69.409 473.562 68.9305C473.462 64.3684 468.338 62.4332 463.533 62.4332C463.186 58.2274 455.549 56.6171 452.096 55.915L451.517 55.7752C449.167 55.122 450.453 53.0576 444.861 50.9337L438.646 49.2605C436.534 48.733 438.046 49.5749 436.995 48.0379C435.456 45.7918 433.196 44.9674 430.273 43.9823L421.274 41.8655C419.263 40.8245 421.312 39.7591 411.397 35.9376C407.612 34.4775 403.58 33.4819 399.895 31.648C398.931 31.1694 398.269 30.6874 397.596 29.9957C396.619 28.9862 397.908 29.7477 396.66 29.1364C394.303 27.9802 380.485 27.9068 377.58 22.3772C372.952 22.3772 363.508 20.4943 359.584 18.1365C356.963 16.5611 358.735 15.6389 354.661 15.5166C352.325 15.4467 350.186 15.0695 347.96 14.6922C343.883 14.0076 339.602 13.4067 335.542 12.0479C332.918 11.1711 332.197 11.2549 331.022 9.02282C324.147 9.02282 307.871 6.95138 301.343 4.6459C296.636 2.98316 299.714 1.46014 290.097 2.78754C286.374 3.30103 281.462 2.9587 277.909 2.27404C276.595 2.02254 276.806 2.10288 275.718 1.59637C274.678 1.11082 274.379 1.1248 274.081 0C267.994 0 261.906 0 255.815 0L224.289 0.349316C222.219 0.352809 221.848 0.677672 220.015 0.733563L206.023 0.709111C204.033 0.733563 203.742 1.07589 201.755 1.09685C197.249 1.15274 192.635 0.838358 188.131 1.08288L165.941 1.81993C158.654 1.83041 150.493 1.55445 143.349 2.14829C137.32 2.65131 139.019 1.77802 130.515 3.29055L115.504 6.56713C110.671 7.7059 105.631 8.87262 100.75 10.1057L57.2114 21.8078C49.7233 23.9561 40.4117 26.8414 33.1109 29.6394C32.0951 30.0272 30.9719 30.5861 29.8418 31.0367C20.7001 34.6661 26.2329 35.1621 20.1801 35.3752C18.7587 35.4241 17.4552 35.8014 16.235 36.0878L16.2384 36.0634Z"/>
</mask>
<path fill-rule="evenodd" clip-rule="evenodd" d="M16.2384 36.0634C16.1864 38.4073 14.7027 38.3479 12.6365 38.5679C10.3901 38.8055 9.17328 38.9487 6.56979 38.9487C6.12607 44.3386 -4.32257 44.8172 -6.32288 45.8058C-7.52582 46.3996 -7.57434 47.4161 -8.72876 48.4326C-9.63358 49.2326 -10.7498 49.7041 -11.9216 50.2665C-13.6549 51.0979 -17.9155 52.2995 -20.2902 52.2995C-20.9246 55.0521 -22.8521 55.8905 -25.3031 56.9908C-27.4073 57.934 -30.1426 58.7933 -33.1829 58.7933C-34.9093 62.0804 -37.4018 63.3694 -40.8547 64.7736C-42.4147 65.4094 -42.8376 65.2731 -43.6939 66.604C-46.1553 70.443 -51.8372 72.1442 -56.4618 72.1442C-56.7911 73.5659 -56.8015 73.999 -57.5122 75.054C-59.353 77.7821 -62.8786 79.0012 -66.4875 79.0012C-66.4875 85.3448 -69.7878 81.0727 -72.1035 82.6935C-73.4659 83.6436 -72.5854 84.0139 -73.2926 85.495C-73.9513 85.6487 -75.7262 85.7186 -76.1734 86.2041C-77.47 87.6084 -74.967 87.1997 -76.6761 88.5585C-77.1233 88.9113 -82.053 89.4667 -82.9612 89.4667C-83.8487 93.3092 -86.4487 94.2663 -89.4024 95.6077C-90.3835 96.0548 -91.2016 97.6128 -93.4966 99.4187C-99.3137 103.991 -105.751 107.607 -110.99 112.829C-113.565 115.393 -111.357 114.719 -115.132 116.231C-116.758 116.885 -118.436 118.53 -119.129 120.144C-120.27 122.798 -119.084 121.677 -121.761 122.907C-123.848 123.864 -126.073 126.166 -126.292 128.803C-137.042 128.803 -129.006 132.607 -136.321 132.775C-136.47 134.598 -137.191 135.587 -138.193 136.663C-141.306 140.02 -142.086 138.029 -143.303 140.537C-144.253 142.496 -145.837 144.107 -147.119 145.714C-148.877 147.918 -150.891 149.675 -153.297 151.397C-155.478 152.955 -155.499 151.589 -156.539 154.265C-158.293 158.767 -161.881 158.327 -162.744 159.92C-163.392 161.118 -163.867 162.533 -165.046 163.735C-167.542 166.274 -168.852 164.587 -169.955 167.811C-170.648 169.834 -171.75 172.08 -173.116 173.645C-173.629 174.235 -174.007 174.616 -174.621 175.018C-175.692 175.72 -175.602 174.993 -176.17 176.701C-177.106 179.513 -179.155 182.29 -182.518 182.573C-182.761 185.487 -185.912 189.001 -188.966 189.071C-189.885 193.046 -190.367 199.051 -195.771 199.176C-195.816 201.241 -197.151 202.896 -198.271 203.875C-199.664 205.09 -202.056 205.307 -202.5 207.19C-202.947 209.076 -203.218 211.322 -204.296 212.957C-205.367 214.581 -206.431 215.776 -209.021 215.776C-209.021 220.39 -210.91 224.809 -215.466 225.881C-216.239 229.228 -216.838 233.867 -220.395 235.351C-221.91 235.984 -222.059 235.578 -222.399 237.304L-223.931 242.257C-224.812 244.109 -226.223 246.037 -228.719 246.093C-228.719 248.328 -229.013 250.777 -229.433 252.587C-231.152 252.185 -231.35 252.328 -231.891 254.075C-232.13 254.85 -232.192 255.427 -232.262 256.234C-232.695 261.218 -233.704 256.803 -238.956 265.724C-240.079 267.632 -242.326 273.277 -242.326 276.043C-244.794 277.238 -245.799 278.415 -246.884 281.192C-247.831 283.609 -248.77 285.831 -248.77 289.034C-252.854 291.79 -253.759 294.148 -254.989 299.004C-255.402 300.625 -255.183 302.092 -256.279 303.119C-257.562 304.317 -257.725 304.289 -258.685 306.109C-260.706 309.951 -262.02 314.643 -262.02 319.348C-266.572 320.417 -267.594 327.246 -268.326 331.399C-268.711 333.596 -268.041 335.018 -269.737 336.475C-273.619 339.811 -275.273 350.486 -275.273 355.795C-277.346 356.899 -277.565 357.399 -278.625 359.638C-279.499 361.482 -279.929 363.173 -280.431 365.395C-280.861 367.291 -281.503 370.044 -281.669 371.728C-281.79 372.95 -281.735 374.292 -281.974 375.029C-282.369 376.237 -282.997 376.206 -283.728 377.233C-286.425 381.009 -288.526 395.768 -288.526 402.709C-290.696 403.219 -291.449 405.978 -292.028 407.843C-294.922 417.142 -297.339 436.592 -297.834 447.1C-297.924 449.021 -298.167 457.995 -298.746 459.532L-300.192 462.766C-302.539 472.435 -303.048 484.997 -303.565 495.092L-304.23 503.444C-304.373 504.73 -304.282 506.403 -304.275 507.73L-304.948 520.763C-304.969 520.938 -304.986 521.113 -305 521.287V532.259C-305 533.223 -303.915 534.509 -303.634 535.571C-303.249 537.017 -303.052 537.848 -302.799 539.42L-300.802 556.173C-300.226 560.582 -300.32 565.029 -299.966 569.405L-299.266 578.082C-299.186 579.598 -299.353 581.258 -299.27 582.777C-299.179 584.454 -298.892 585.002 -298.902 587.098L-298.545 596.121C-298.59 606.904 -298.195 600.142 -295.914 607.907C-294.381 613.115 -293.785 618.324 -293.116 623.853C-292.815 626.344 -292.229 629.935 -292.107 632.579C-291.958 635.859 -292.433 635.695 -290.481 637.798C-287.573 640.931 -286.699 650.289 -286.079 654.656C-285.704 657.297 -285.302 660.825 -285.302 663.616C-280.175 663.731 -281.721 671.619 -281.721 676.247C-278.84 677.784 -278.202 680.9 -277.294 684.054C-276.369 687.261 -275.62 691.072 -275.266 694.642C-274.912 698.23 -272.732 696.043 -270.655 702.624C-269.764 705.446 -268.828 709.813 -268.828 713.414C-266.901 713.868 -266.294 715.203 -265.473 716.89C-264.703 718.483 -264.138 720.376 -263.667 722.287C-263.181 724.24 -262.685 726.021 -262.453 727.918C-262.034 731.352 -261.326 729.968 -259.718 732.382L-255.957 739.058C-255.548 739.851 -255.263 740.755 -254.865 741.569C-248.295 755.053 -241.909 772.201 -233.274 784.046C-232.241 785.461 -231.218 786.854 -229.076 787.033C-229.076 791.57 -226.746 797.645 -224.326 799.57C-222.725 800.845 -223.016 799.639 -222.097 801.655C-217.445 811.876 -216.086 808.722 -214.959 812.148C-213.847 815.537 -212.456 818.171 -209.669 820.169C-208.608 820.93 -208.723 821.283 -208.099 822.918C-207.09 825.555 -205.45 830.068 -202.212 830.341C-202.136 833.872 -198.884 836.468 -195.768 837.198C-195.768 841.533 -193.892 845.592 -190.568 846.755C-188.817 847.366 -189.386 846.846 -188.685 848.47C-188.231 849.522 -187.891 850.15 -187.236 850.982C-185.929 852.638 -183.797 852.917 -182.709 854C-182.258 854.447 -181.048 857.947 -180.48 858.971C-179.388 860.937 -178.448 862.303 -176.697 863.459C-174.95 864.616 -174.475 869.96 -169.258 870.397C-168.831 875.563 -163.933 876.07 -162.862 877.303C-162.494 877.725 -162.255 878.752 -161.822 879.503C-160.629 881.557 -158.612 883.894 -156.008 884.111C-155.769 887.003 -152.555 890.542 -149.564 890.608C-148.849 893.7 -146.156 897.179 -142.758 897.465C-142.693 900.48 -139.184 903.721 -136.314 903.959C-136.036 907.299 -132.525 910.533 -129.152 910.816C-129.089 913.59 -126.642 914.91 -124.711 916.08C-121.761 917.869 -117.847 918.966 -116.786 922.529C-115.999 925.169 -116.463 923.51 -113.988 924.761C-112.106 925.707 -109.662 927.835 -109.457 930.297C-107.651 930.297 -106.195 930.329 -104.791 930.657C-102.326 931.234 -103.321 931.37 -103.373 933.546C-101.057 934.091 -100.517 933.158 -99.7643 934.964C-99.331 936.005 -98.8041 937.018 -97.7363 937.972C-96.0688 939.456 -93.0528 940.7 -90.1234 940.766C-89.9085 941.699 -89.756 942.331 -89.2602 943.145C-87.8631 945.426 -85.7103 947.201 -82.9612 947.264C-82.9612 952.179 -79.6991 949.506 -76.8737 950.872C-75.7262 955.843 -76.9084 953.258 -71.7326 955.794C-69.7358 956.772 -67.0075 958.386 -66.4909 960.618C-64.6917 960.618 -64.6328 960.656 -63.2669 960.978C-62.3621 963.189 -64.6016 963.863 -56.4618 963.863C-56.285 966.011 -53.8444 967.405 -52.2185 968.25L-47.7118 970.207C-46.1483 970.898 -47.3894 969.704 -46.4188 971.429C-45.507 973.043 -46.0096 972.603 -44.363 973.689C-43.2918 974.398 -42.5464 974.926 -41.3747 975.366C-38.8371 976.32 -35.5056 976.756 -34.2714 977.232C-32.9367 977.745 -32.6525 979.848 -29.4874 981.43C-22.9249 984.717 -21.3822 982.286 -19.8499 985.074L-17.4475 987.344C-15.5131 988.5 -13.7035 989.307 -11.0584 989.926C-9.80692 990.219 -7.84128 990.243 -6.88794 991.134C-6.60367 991.4 -6.70767 991.351 -6.38873 991.711C-6.00739 992.144 -5.77515 992.423 -5.33835 992.818C-3.91699 994.1 -1.53189 995.183 0.360931 996.098C7.91833 999.755 27.5329 1005.95 31.8212 1009.5C32.8855 1010.39 33.2981 1010.66 34.8719 1010.76C36.7093 1010.87 37.7528 1011.01 39.1602 1011.13C40.6059 1014.16 39.3891 1013.39 46.9985 1014.06C50.6905 1014.38 49.1513 1015.79 54.0913 1017.74C57.8319 1019.21 67.4 1020.87 72.4683 1020.87C73.3593 1024.24 81.3812 1025.67 84.3834 1026.19L95.5046 1027.97C95.5531 1028 96.6035 1028.78 96.7491 1028.88C101.332 1032.14 122.895 1034.23 129.052 1034.23C129.606 1040.94 149.037 1036.89 156.779 1038.04C160.616 1038.62 164.547 1038.49 168.461 1038.54C170.6 1038.57 171.665 1038.93 174.174 1038.92C182.162 1038.88 190.315 1039.65 198.171 1039.64C202.23 1039.63 206.293 1039.66 210.349 1039.64C212.637 1039.62 213.726 1039.93 215.518 1040H254.449C272.552 1039.68 290.583 1038.75 298.14 1036.44C302.917 1034.98 299.752 1034.04 307.393 1033.86C311.123 1033.76 314.846 1033.27 318.209 1032.85C322.476 1032.31 329.289 1031.55 332.814 1029.52C334.572 1028.51 333.899 1027.49 336.756 1027.36C342.469 1027.1 354.207 1025.5 358.866 1022.93C363.418 1020.43 357.369 1021.73 365.623 1020.36C369.062 1019.79 372.293 1018.97 375.132 1018.03C380.038 1016.4 380.086 1014.31 382.974 1014.02C386.416 1013.68 389.821 1012.98 392.923 1012.14C395.371 1011.48 399.843 1010.41 400.512 1007.52C402.179 1007.52 403.795 1007.61 405.355 1007.34C408.79 1006.73 406.679 1006.49 407.92 1005.24C409.189 1003.97 414.989 1003.91 416.989 1003.91C418.029 999.417 426.003 997.418 430.239 997.418C433.113 993.097 441.786 990.673 446.713 990.561C447.548 988.808 447.312 988.72 449.001 987.456C450.228 986.534 451.271 986.052 452.745 985.454C454.291 984.829 456.53 984.571 457.317 983.205C457.654 982.618 457.331 982.95 457.775 982.223C459.418 979.533 464.327 978.168 467.225 977.675C468.213 977.507 469.111 977.549 469.69 977.273C471.465 976.432 470.577 974.21 478.083 971.656C484.24 969.56 482.739 972.219 483.786 969.103C484.503 966.962 486.032 965.683 488.192 964.883L492.556 963.87C494.584 963.193 493.309 962.022 494.782 960.339C495.517 959.504 497.278 958.505 498.314 958.124C499.93 957.534 501.095 957.362 503.289 957.362C503.681 952.647 508.572 950.904 513.318 950.505C513.471 943.697 525.968 944.434 526.568 937.154C529.778 937.085 533.304 933.86 533.373 930.661C537.807 930.661 541.704 928.631 543.031 925.596C544.713 921.75 543.33 925.302 547.15 922.165C548.422 921.121 549.802 919.416 549.847 917.306C555.328 917.306 556.292 917.285 556.292 914.058C557.657 913.736 557.716 913.698 559.516 913.698C559.977 911.7 560.667 910.98 561.811 909.513L568.193 902.593C570.949 899.844 575.053 896.246 578.472 894.545C581.04 893.266 580.812 887.457 586.376 886.993C586.441 884.045 589.898 880.562 592.824 880.499C593.566 877.292 596.096 873.939 599.629 873.642C599.695 870.694 603.151 867.211 606.073 867.148C606.073 862.562 608.528 857.14 612.879 857.042C612.948 853.892 616.2 850.618 619.323 850.549C619.916 847.985 622.526 842.909 624.246 841.435C626.891 839.171 625.38 839.849 627.037 837.39C630.049 832.919 631.852 835.406 632.687 832.615C633.883 828.608 634.414 825.712 638.328 823.864C639.874 823.134 639.035 823.721 639.867 821.807C640.886 819.46 642.023 817.039 643.607 815.111C644.474 814.056 645.015 814.199 645.59 813.5L648.041 808.753C649.979 805.899 652.281 803.412 653.949 800.268C656.916 794.665 654.611 795.297 657.336 793.216C660.417 790.861 661.014 786.935 662.539 784.025C663.049 783.054 663.631 782.939 664.369 782.257C668.457 778.492 671.823 769.486 674.354 764.17C677.331 757.921 682.479 745.852 685.863 740.402C686.276 739.739 686.844 738.823 687.309 738.247C688.962 736.204 688.785 737.594 689.614 733.353C690.113 730.803 691.385 727.743 692.613 725.55C694.044 722.989 695.206 724.641 695.573 721.676C696.118 717.257 696.974 711.332 699.837 707.93C700.496 707.148 701.182 707.015 702.052 706.554C702.052 702.006 704.178 691.628 706.996 688.082C707.97 686.859 708.213 687.467 708.785 686.276L710.785 674.941C711.648 671.455 712.477 667.839 715.663 666.141C715.663 660.811 716.46 656.305 717.244 651.495C717.732 648.48 719.046 640.62 722.111 639.8C722.111 635.059 723.009 629.404 723.511 624.975C724.586 615.543 726.104 605.849 727.928 596.589C728.642 592.956 729.422 586.847 731.537 583.626C732.698 581.859 731.936 578.62 732.189 576.346L733.201 560.767C733.215 558.891 733.489 558.786 733.568 557.169L734.272 541.638C734.324 539.822 734.633 539.64 734.657 537.695C734.692 534.897 734.865 530.918 735 526.569V510.637C734.827 507.493 734.504 504.709 733.946 502.655C733.714 501.809 733.541 501.383 733.079 500.639L732.365 499.553C732.334 499.472 732.289 499.382 732.261 499.294C732.001 498.477 731.936 474.598 731.211 469.679L727.935 431.482C727.62 429.12 728.652 426.528 726.403 426.528C677.935 426.528 630.919 428.331 582.434 428.331L536.58 428.345C534.614 428.345 534.275 428.058 532.656 427.971C529.969 427.824 526.8 427.971 524.058 427.971C520.779 427.975 518.91 427.59 515.825 427.608L483.231 425.805C483.744 424.729 483.948 420.042 483.948 418.229C483.948 414.879 482.572 413.268 480.367 412.095C480.367 407.375 478.312 390.276 473.562 388.998C473.562 385.414 472.897 381.893 471.968 379.056C469.978 372.968 468.289 373.872 467.315 372.199C466.771 371.267 466.837 368.566 466.556 367.19C466.244 365.671 465.759 363.868 465.377 362.604C464.535 359.827 463.128 356.459 460.312 355.799C460.312 352.669 459.342 350.36 458.375 348.009C457.303 345.403 456.159 343.671 453.868 342.448C453.868 338.179 451.337 332.793 447.423 332.706C447.049 328.172 444.976 322.967 440.618 322.6C440.618 313.64 435.117 313.448 434.174 312.494L432.146 306.238C431.095 304.32 429.951 302.968 427.368 302.752C427.233 301.121 426.055 299.472 425.143 298.497C423.985 297.261 421.919 296.719 421.076 295.738C419.839 294.298 419.132 289.457 414.115 289.038C414.056 286.411 412.042 284.528 410.122 283.319C407.653 281.768 408.26 282.561 406.676 279.935C405.487 277.968 403.414 275.896 400.865 275.683C400.768 271.282 393.117 268.072 390.06 265.641C388.496 264.397 388.177 262.982 386.344 262.168C383.723 261.009 382.187 259.594 380.991 257.096C380.173 255.388 381.001 256.052 378.831 255.664C375.077 254.993 371.097 253.17 370.781 249.342C368.344 248.769 366.268 248.713 364.34 247.532C362.746 246.554 360.95 244.863 360.752 242.484C356.727 242.484 350.345 240.2 348.196 237.094C345.839 233.696 340.139 234.565 337.477 229.493C332.703 229.493 325.908 227.338 322.986 225.33C321.201 224.103 321.915 223.583 320.868 222.773C320.136 222.203 318.122 222.182 317.055 221.924C305.569 219.164 295.703 213.875 281.046 210.934C276.952 210.113 273.014 209.223 268.722 209.278C266.091 209.313 265.876 209.275 264.16 208.101C256.886 203.127 213.123 202.418 200.296 203.49C198.59 203.634 196.334 203.508 194.576 203.501C192.198 203.49 191.484 203.889 189.223 203.882C182.928 203.868 169.668 204.937 163.923 207.259C162.09 208 161.802 209.034 160.179 209.261L149.568 210.113C144.697 210.76 139.802 211.336 135.33 213.09C133.663 213.743 132.359 214.085 131.912 215.779C125.62 215.779 114.831 217.152 110.47 220.16C108.938 221.215 109.118 222.332 107.225 222.664C106.161 222.853 105.953 222.853 104.83 223.139C101.644 223.946 98.6281 224.788 95.976 226.122C92.8837 227.677 92.7728 228.903 90.5888 229.357C89.4066 229.605 89.2472 229.584 88.2557 229.895C77.5401 233.266 81.2321 235.414 77.183 236.057C75.5051 236.323 74.3126 236.721 72.6798 237.294C70.3293 238.115 66.2595 239.543 66.0168 242.488C52.6908 242.488 65.8989 246.096 53.1241 246.096C51.9351 248.594 52.0668 249.254 49.4355 250.679C47.2966 251.839 45.4419 252.042 43.095 252.59C42.5645 254.885 41.7014 255.835 39.9507 257.002C38.1514 258.2 36.7336 258.825 34.8512 259.803C26.3889 264.205 32.6498 264.718 25.9036 266.304C25.9036 269.158 25.2484 269.553 19.816 269.553C19.5872 272.302 17.0808 274.779 15.4341 276.326C12.6019 278.977 9.20102 281.189 6.05325 283.473C-0.207611 288.025 -8.13596 293.114 -10.209 301.009C-10.788 303.213 -11.8003 302.249 -13.3984 303.569C-14.3414 304.352 -15.3918 305.393 -15.995 306.364C-17.035 308.051 -16.4387 308.847 -18.3315 309.784C-20.5225 310.863 -23.4553 313.154 -23.5177 316.103C-29.6295 316.239 -29.1026 323.955 -30.5412 325.625C-31.973 327.281 -36.7675 327.057 -36.7675 335.951C-41.0419 336.311 -43.4686 341.456 -43.5726 346.057C-45.8398 346.109 -47.2126 347.838 -48.1313 349.403C-49.2302 351.279 -50.0206 352.945 -50.0206 355.799C-52.4127 357.074 -53.5463 358.667 -54.5794 361.308L-56.3543 367.099C-56.753 369.499 -56.8258 368.752 -58.5383 370.313C-62.577 373.991 -62.525 382.295 -63.728 385.292L-65.1736 387.084C-68.987 391.709 -73.4867 409.258 -74.662 413.974C-75.338 416.685 -76.0348 419.542 -76.4785 422.249C-77.6676 429.522 -77.2516 423.888 -79.5015 429.669C-81.2903 434.259 -82.0287 441.545 -82.826 447.25C-83.0271 448.699 -83.1519 450.718 -83.2698 451.854C-83.7898 456.859 -83.5159 461.862 -84.2508 466.745C-84.6426 469.351 -84.7605 483.708 -84.7605 487.163C-84.7605 500.992 -84.75 516.369 -83.3842 529.44C-82.8191 534.855 -82.5383 539.878 -81.6335 544.635C-81.1377 547.248 -80.0076 555.967 -76.8806 556.809C-76.8806 559.981 -76.7212 562.947 -76.2081 565.511C-75.695 568.061 -74.6308 570.209 -74.0067 572.675C-73.5283 574.565 -73.6046 576.797 -73.1817 578.701C-72.7518 580.639 -72.1798 579.955 -71.2473 581.443C-68.148 586.393 -67.8638 592.914 -66.6261 598.437C-66.0888 600.837 -65.7283 599.384 -64.2757 601.123C-62.2858 603.509 -60.0498 611.508 -60.0498 615.99C-56.3786 618.467 -56.1082 619.913 -54.4199 624.391C-53.8271 625.963 -53.7716 628.772 -52.7316 629.91C-51.4559 631.308 -50.5892 631.846 -49.3689 633.739C-48.4987 635.091 -47.7188 637.096 -47.1294 638.699C-46.1588 641.347 -45.4515 640.142 -43.7147 642.475C-42.1027 644.638 -40.2723 649.769 -39.9949 653.161C-33.7098 653.301 -33.5642 664.21 -28.3226 666.662C-25.8161 667.836 -27.7297 666.547 -26.0207 669.394C-24.7484 671.51 -22.7342 673.159 -20.2971 673.732C-20.2971 678.574 -18.5395 682.189 -15.1942 683.384C-12.5421 684.334 -13.8421 685.228 -11.7968 687.541C-10.8053 688.665 -8.85358 690.181 -7.04742 690.332C-6.81168 693.192 -3.43857 696.591 -0.602814 696.825C-0.363617 699.732 3.31802 703.441 6.20233 703.682C6.43805 706.543 9.81116 709.939 12.6469 710.176C13.0733 715.343 17.9926 715.713 19.6011 717.243C21.1577 718.724 20.1523 718.717 23.3209 720.711C25.1236 721.847 26.0041 722.297 28.0218 723.195C30.646 724.365 28.0356 726.273 35.5653 730.028C38.8136 731.649 42.1832 732.955 43.088 736.881C45.8406 736.881 46.6622 737.098 48.8185 737.601C49.335 738.729 48.867 738.286 49.1755 739.767C50.59 739.885 50.8534 740.127 52.7567 740.127C53.6268 743.885 59.5964 746.1 63.2365 746.886C67.3445 747.773 64.9387 748.615 67.2059 750.134C68.4435 750.962 68.5544 750.232 69.9445 750.232C71.9864 750.232 71.7923 752.094 72.451 753.481C73.7996 753.481 75.3214 753.593 76.15 753.725C81.1905 754.522 77.6649 756.251 80.8543 756.925C82.182 757.204 83.1805 756.949 84.4562 757.264C86.2346 757.704 86.4634 759.419 88.9178 760.712C93.7469 763.258 99.4774 763.209 101.377 764.034C102.74 764.624 101.956 765.012 103.187 766.182C106.154 768.99 114.1 770.447 118.652 770.447C119.893 772.808 120.25 773.528 123.387 773.975C125.492 774.276 129.256 774.052 131.544 774.052C132.713 774.436 133.097 777.566 145.609 779.728C151.464 780.738 157.448 781.286 163.473 781.936L182.387 783.089L244.001 783.435C245.228 783.435 245.075 781.674 247.519 780.846C252.792 779.061 259.122 779.826 264.77 779.826C265.834 775.226 275.08 777.57 278.394 776.235C283.327 774.248 284.409 773.395 290.687 771.303C299.492 768.369 308.329 765.361 317.412 763.227C317.706 759.688 319.942 760.341 323.499 760.341C324.116 759.416 324.05 759.44 324.508 758.473C325.361 756.66 326.383 757.1 328.29 756.509C331.081 755.647 334.336 754.518 336.517 752.527C340.167 749.195 337.31 751.483 342.739 749.415C345.561 748.342 348.522 747.28 350.401 744.867C351.971 742.851 351.961 743.655 354.658 743.019C354.658 740.367 355.937 740.133 360.745 740.133C361.463 738.624 361.009 738.684 362.465 737.538C364.261 736.127 370.289 733.731 370.989 732.777C372.102 731.261 371.138 731.683 372.979 730.447L378.89 727.383C381.528 726.461 381.858 722.587 385.889 720.722C389.942 718.85 386.378 719.534 390.75 716.597C394.504 714.075 396.629 714.183 397.648 712.359C398.016 711.703 397.95 711.696 398.446 710.994C400.567 707.965 405.261 703.27 408.44 701.22C411.023 699.55 410.233 700.318 411.744 697.692C413.741 694.212 416.289 694.75 417.856 692.665C421.378 687.981 424.81 683.094 428.707 678.699C429.712 677.564 430.072 677.658 430.797 676.114C431.47 674.679 431.463 674.549 432.464 673.463C433.283 672.576 434.042 671.951 434.163 670.487C432.818 669.767 432.988 669.764 430.939 669.764C430.381 667.343 430.62 668.192 429.507 666.515C425.947 666.515 423.711 667.168 423.42 663.63C421.603 663.48 415.883 662.84 414.833 662.177C412.798 660.891 414.309 659.662 407.303 659.662C403.538 653.996 392.781 654.251 390.372 652.183C386.652 648.99 376.706 646.311 371.489 646.311C371.135 642.032 359.778 640.159 356.762 639.859C354.013 639.586 354.467 638.486 349.888 636.32C347.742 635.307 344.175 634.291 341.772 633.673C336.437 632.303 339.65 633.512 336.763 631.143C334.145 628.995 328.834 629.058 326.103 630.529C324.907 631.171 324.664 632.342 323.61 633.068C323.045 633.456 322.615 633.575 322.012 633.983C320.237 635.189 319.152 636.551 318.15 638.392C317.152 640.226 316.715 639.667 314.548 640.177C314.07 641.179 314.191 640.875 314.191 642.343C312.26 642.797 310.807 643.425 308.461 643.425C307.538 644.816 306.949 646.031 305.611 647.048C302.054 649.748 296.421 653.423 291.63 653.531C290.794 657.143 290.056 656.416 287.692 656.416C284.793 656.416 285.618 658.68 284.065 659.62L273.977 663.169C270.68 664.5 267.37 665.75 264.295 667.486C259.209 670.358 258.897 669.823 252.962 670.138C244.06 670.613 232.117 673.987 222.805 675.115C212.873 676.32 191.432 677.798 180.297 675.852C177.364 675.342 174.556 674.661 171.685 674.064C168.978 673.501 166.139 672.677 163.462 671.888C145.383 666.54 127.585 659.822 110.775 651.362C92.6722 642.248 93.3795 637.491 91.8922 636.467C91.5768 636.25 90.6547 635.961 90.1242 635.723C87.9784 634.759 85.2639 633.501 83.6346 631.797C82.0156 630.109 82.9135 630.396 80.778 629.264C78.7673 628.195 76.2609 625.893 76.039 623.214C72.7491 622.938 70.7627 619.791 69.4523 617.223C68.6723 615.697 67.2059 615.98 65.053 611.91C64.5919 611.04 62.9418 607.198 62.557 606.849C61.0733 605.497 59.7074 605.961 58.1925 603.666C56.3551 600.882 55.0447 596.558 52.5036 594.242C49.7926 591.772 50.3958 594.678 49.1825 590.012C47.0574 581.841 43.6704 585.006 42.9632 581.481C42.2491 577.932 41.2576 573.255 38.7165 570.604C36.2656 568.047 36.893 570.328 36.0784 565.685C33.7002 552.188 29.8834 549.383 29.8383 549.239C29.8383 543.912 28.9127 539.347 28.0183 534.834C27.1377 530.397 26.1151 525.643 25.2726 521.364C22.0209 504.859 18.1971 483.432 24.3089 467.164C28.4828 456.056 27.8172 441.186 31.2111 437.312C32.6533 435.663 32.8231 437.266 33.2842 433.986C34.0677 428.404 34.6848 422.089 39.864 419.325C39.864 416.562 40.9733 413.67 41.8851 411.62C42.835 409.478 43.719 407.938 45.4904 406.589C46.7177 405.657 46.8078 403.722 47.4803 402.101C49.2414 397.843 53.8417 389.791 57.565 387.363C60.1754 385.662 58.7644 387.545 59.9327 384.694C60.6053 383.056 61.8845 381.526 63.3474 380.558C66.3912 378.553 65.5002 379.706 66.048 375.699C66.7552 370.53 69.4489 376.374 69.591 369.887C73.8689 369.792 74.9158 365.23 76.2679 363.624L84.3383 358.765C85.2847 358 85.6418 356.875 86.5154 356.264C88.2106 355.072 89.885 354.587 91.2475 352.732C92.5197 350.999 92.3707 350.283 94.572 349.588C98.9886 348.191 103.086 345.106 106.917 342.539C108.054 341.777 109.541 340.618 110.519 339.675C111.694 338.539 112.304 337.132 113.84 336.524C117.019 335.27 118.898 335.029 123.304 333.069C127.11 331.375 130.976 329.897 134.349 327.599C136.242 326.31 136.817 326.233 139.074 325.866C140.152 325.691 140.638 325.562 141.719 325.286C146.146 324.147 150.233 323.487 153.877 321.297C154.813 320.731 155.049 320.204 155.739 319.924L172.635 317.465C195.606 313.462 220.86 306.517 244.094 315.663C251.589 318.611 261.345 316.655 268.722 320.074C270.708 320.997 270.812 322.23 271.779 322.768C273.156 323.533 275.371 323.494 276.747 323.896C280.006 324.846 282.724 325.573 285.435 327.05C288.86 328.919 287.071 330.03 294.14 330.191C294.14 332.318 294.608 332.629 296.729 332.992C298.341 333.268 299.156 333.436 300.945 333.436C301.479 335.741 303.801 336.887 305.545 338.183C309.161 340.869 313.324 343.189 317.061 345.707L325.382 351.757C327.597 353.588 329.694 355.53 330.786 358.22C331.563 360.137 330.394 358.827 331.882 359.641C332.412 359.931 332.627 359.847 333.383 360.295C335.386 361.482 336.582 363.508 337.612 365.412C338.337 366.753 337.588 365.887 338.995 366.544C340.548 367.27 340.784 367.47 341.862 368.71C342.479 369.419 343.374 370.561 343.769 371.48C345.267 374.987 346.32 372.549 349.78 379.856C350.279 380.908 350.404 382.298 351.247 383.07C352.588 384.3 352.255 383.136 353.673 385.316C355.271 387.772 355.694 388.932 356.689 392.019C358.326 397.099 356.89 394.056 359.754 398.314C363.917 404.504 368.632 411.536 368.632 419.678C368.632 427.639 361.903 425.739 356.474 426.193C350.768 426.668 344.747 426.927 338.545 426.892C335.477 426.874 333.053 427.258 329.597 427.258C326.491 427.258 323.381 427.241 320.275 427.244L280.873 426.916C279.746 426.822 278.439 426.923 277.298 426.909C273.551 426.867 263.653 425.837 261.719 424.205C260.447 423.133 261.695 423.587 259.729 422.606C257.354 421.418 255.413 419.287 254.754 416.433C250.217 416.332 252.352 414.735 251.173 413.548C250.178 413.069 246.968 412.465 245.443 412.465C245.096 408.287 239.14 405.971 235.414 405.971C234.238 400.892 231.5 404.071 229.149 402.178C227.794 401.088 228.823 400.878 227.718 400.012C227.09 399.519 223.038 399.069 222.081 398.838C209.015 395.715 211.095 394.622 208.245 393.291C206.262 392.365 188.877 392.617 185.632 392.617C178.3 392.617 164.61 393.19 159.926 396.665L158.359 398.335C157.035 399.827 154.955 399.31 152.878 399.666C151.988 399.82 151.01 399.991 150.299 400.312C147.644 401.514 149.852 403.079 142.659 403.079C141.047 406.467 139.66 408.06 134.907 409.342C134.373 409.485 133.85 409.517 133.42 409.646C133.33 409.674 133.226 409.691 133.143 409.726L132.3 410.32C132.2 410.432 131.756 411.19 131.6 411.42C130.387 413.254 128.92 414.575 127.35 416.157C125.509 418.012 123.852 419.759 121.682 421.271C121.092 421.683 121.217 421.603 120.59 421.977C118.946 422.958 118.985 423.318 118.194 424.977C117.248 426.965 114.516 429.588 112.218 429.78C112.089 431.317 110.408 434.311 109.701 435.544C107.922 438.643 106.799 438.747 105.728 440.201C104.608 441.717 103.325 445.479 101.232 448.298C100.24 449.632 100.254 449.482 98.9713 450.348C98.9713 457.527 95.8235 465.498 94.3155 471.639C90.7829 486.006 88.6197 498.561 94.9152 512.533C97.3974 518.046 96.3262 528.497 100.136 532.532C100.885 533.328 101.377 533.307 101.779 533.761C102.67 534.778 102.878 538.893 105.353 541.705C107.933 544.632 108.231 541.956 109.091 546.599C110.293 553.089 114.142 552.02 115.695 554.381C117.022 556.404 118.038 558.301 120.295 559.492C121.574 560.166 121.89 560.236 122.524 561.574C124.493 565.734 126.265 565.196 128.532 567.065C129.184 567.603 129.17 567.917 129.849 568.623C131.433 570.268 134.786 571.767 137.063 572.902C139.598 574.163 139.806 576.189 143.629 577.834C147.193 579.368 150.892 579.749 151.769 580.818C154.258 583.853 154.539 584.056 158.727 585.352C171.509 589.309 188.558 587.65 202.126 587.483L216.926 586.515C219.023 586.057 217.491 586.623 218.638 585.711C218.697 585.666 218.767 585.589 218.826 585.54C218.884 585.495 218.957 585.418 219.016 585.373C219.075 585.327 219.155 585.257 219.214 585.212C220.67 584.098 221.98 583.651 223.755 582.927C226.809 581.687 230.151 580.846 233.441 580.06C236.45 579.336 234.058 578.383 241.148 574.834C247.766 571.519 242.933 573.52 246.594 569.856C247.741 568.71 248.289 568.473 249.859 567.732C251.419 566.999 252.317 567.068 253.711 566.562C255.326 565.972 254.806 565.147 255.93 563.747C257.854 561.347 261.047 560.215 261.632 559.031C266.146 549.903 264.881 553.903 267.969 549.896L268.698 548.104C268.93 547.322 269.145 546.553 269.398 545.924C270.348 543.563 272.112 541.558 274.04 540.136C276.331 538.446 278.113 537.82 281.122 536.811C288.943 534.18 301.135 534.034 309.93 534.767C311.4 534.89 313.085 534.729 314.579 534.774C316.424 534.83 316.774 535.162 318.857 535.155C325.752 535.124 337.397 536.591 345.724 536.591H449.583C462.413 536.591 474.224 536.951 486.829 536.951C499.365 536.951 511.897 536.951 524.433 536.951C537.242 536.951 549.15 537.31 561.679 537.31C574.332 537.31 586.986 537.31 599.639 537.31L600.922 548.649C601.352 551.576 601.431 557.606 601.431 560.767C601.431 565.329 601.161 569.811 600.561 573.964C600.007 577.793 599.258 582.641 596.062 583.504C596.062 598.182 591.818 608.427 589.766 621.908C589.288 625.051 589.742 628.195 588.324 629.837C587.946 630.277 587.911 630.179 587.457 630.77C584.219 634.982 583.443 643.073 582.534 648.183C582.087 650.698 582.344 649.067 581.023 650.628C577.685 654.572 575.258 668.524 571.611 674.707C570.703 676.247 571.053 675.814 569.559 676.607C569.559 678.221 569.351 679.248 569.066 680.806C568.734 682.64 568.709 683.059 566.692 683.104L565.974 689.961C563.901 690.007 563.107 690.545 562.826 692.2C562.403 694.667 563.402 696.521 559.887 696.815C559.242 704.622 559.606 702.25 556.663 703.672C556.122 706.005 555.948 706.83 555.948 709.806C552.513 711.636 551.279 715.514 549.67 718.996C549.053 720.331 549.656 719.527 548.592 720.436C546.228 722.462 544.449 725.385 543.385 728.54C542.352 731.603 542.959 729.556 540.639 730.831C538.875 731.802 539.832 732.892 539.832 734.702C539.832 736.476 537.987 736.169 537.055 736.595C535.873 737.136 536.521 736.417 536.181 737.884C536.053 738.439 536.095 739.389 535.699 739.924C534.833 741.091 533.526 738.38 533.061 743.759C532.947 745.08 532.95 746.142 531.733 746.753C530.243 747.504 529.005 747.895 528.014 749.499C526.915 751.277 526.221 753.446 526.221 756.352C524.277 757.292 523.809 757.191 522.179 758.773C521.032 759.887 519.822 761.152 519.777 763.206C513.7 763.342 513.707 774.104 508.046 776.288C507.973 776.316 507.262 776.55 507.245 776.56C506.222 777.049 501.944 784.821 494.099 790.019C492.029 791.392 492.882 794.557 488.098 796.604C485.886 797.55 486.933 797.439 485.883 799.423C484.888 801.302 482.527 803.415 480.028 803.625C479.924 808.278 474.665 809.612 473.69 810.59C472.907 811.38 472.543 813.175 471.174 814.552C470.075 815.659 468.671 816.815 466.774 816.976C466.636 823.274 454.135 822.921 453.525 830.327C450.724 830.561 446.952 833.649 446.72 836.461C439.079 836.461 440.448 837.477 440.632 839.709C439.166 840.052 438.951 840.069 437.051 840.069C435.945 842.176 436.052 842.176 434.094 843.587C432.693 844.596 431.272 845.194 429.653 845.969C426.71 847.377 427.875 846.221 425.895 848.676L424.221 850.238C422.356 851.551 417.71 852.927 416.743 854.248C414.004 857.993 409.102 859.858 404.103 860.277C404.01 864.486 398.55 866.771 394.074 866.771C392.618 869.544 391.242 870.453 388.202 871.679C385.03 872.954 381.396 872.894 380.343 874.585C378.925 876.863 376.269 877.97 373.666 878.686C370.931 879.437 367.81 880.485 364.351 880.485L363.595 881.889C360.277 886.245 349.278 886.081 347.659 887.845C345.267 890.458 343.863 891.254 340.032 892.065L332.44 893.438C330.103 893.962 329.77 897.71 311.643 899.907C310.145 900.089 307.334 900.123 306.034 900.392C303.76 900.861 305.41 902.073 302.716 903.183C300.657 904.032 294.407 903.942 291.29 903.942C291.151 905.618 290.264 906.055 288.846 906.53C284.714 907.92 278.865 907.19 274.459 907.19C273.894 909.628 271.377 909.834 269.2 910.191C264.291 910.994 258.128 910.799 252.973 910.799C251.229 910.799 250.463 910.446 249.367 910.453C247.675 910.46 247.807 911.165 246.368 911.724C240.392 914.047 223.388 913.646 215.366 913.691L165.331 910.701C157.468 909.705 136.065 908.56 129.274 904.452L126.941 903.914C123.477 903.889 118.01 904.441 115.84 901.748C114.953 900.648 115.442 900.703 113.937 900.417C113.511 900.337 113.389 900.351 112.97 900.309C106.761 899.68 100.264 898.695 94.8181 896.225C93.1368 895.464 93.1819 894.58 91.9859 894.028C90.2525 893.232 76.7809 892.236 73.1512 888.107C71.7507 886.514 72.4753 886.741 69.6256 886.605C67.6011 886.507 63.1221 885.403 61.413 884.775C58.605 883.748 57.2287 882.707 56.0015 880.125C53.5609 880.069 50.2502 878.972 48.2673 878.176C46.2393 877.362 42.9597 876.157 42.7518 873.631C37.628 873.202 30.8887 869.988 26.3924 867.742L19.4139 863.585C17.4587 862.135 16.8278 860.581 15.5901 860.221C12.9901 859.463 10.7056 859.309 8.50421 857.622C7.34982 856.742 6.90955 855.104 6.23007 854.143C5.09647 852.543 1.89322 854.003 -1.75375 850.639C-2.30496 850.133 -2.49564 849.944 -2.88736 849.256C-3.5495 848.1 -2.95325 849.117 -3.32071 848.247C-4.177 846.217 -5.75433 846.863 -8.25037 845.997C-9.77225 845.47 -10.781 844.799 -11.7864 843.789C-12.9408 842.633 -13.187 841.421 -13.8283 840.073C-16.7126 840.073 -18.1374 839.503 -20.0441 838.396C-21.9438 837.292 -22.9596 835.905 -23.4969 833.579C-25.2961 833.579 -25.102 833.254 -26.7209 833.219C-26.7209 831.417 -25.5388 830.879 -28.3954 830.225C-29.8548 829.894 -31.9037 830.117 -32.9021 828.982C-34.5626 827.103 -34.5834 826.31 -36.9512 824.759C-39.7384 822.939 -39.1664 824.451 -40.508 821.486C-41.5446 819.201 -43.7355 817.2 -46.4188 816.976C-46.7307 813.186 -50.4956 810.992 -53.6503 810.189C-57.8727 809.116 -55.3871 809.874 -57.5052 806.856C-58.5141 805.421 -59.8488 804.401 -61.4781 803.643C-64.8512 802.071 -61.8698 803.255 -64.4629 799.793C-65.7872 798.026 -66.6123 797.673 -68.5918 796.737C-70.4291 795.867 -70.0894 794.288 -71.58 792.527C-72.4779 791.465 -74.454 790.051 -76.1422 789.907C-76.1422 788.157 -76.2705 787.242 -76.5791 785.653C-76.9777 783.588 -77.1406 783.333 -79.0092 783.77C-79.2727 782.631 -79.4599 781.3 -79.7268 780.161C-82.9127 780.092 -85.9149 776.417 -86.1714 773.305C-91.1219 772.889 -92.3352 767.632 -92.8136 767.003C-93.396 766.238 -94.0582 766.503 -95.1814 766.14C-96.0723 765.854 -94.7515 766.116 -96.2006 765.724V761.396C-97.3481 760.621 -97.4347 760.313 -99.4246 760.313C-99.4939 757.124 -102.025 754.826 -104.33 753.708C-107.88 751.986 -105.079 748.374 -109.707 744.329C-112.005 742.32 -112.196 744.783 -112.803 741.674C-113.368 738.789 -114.269 735.809 -116.689 734.041C-117.576 733.395 -117.691 733.28 -119.122 733.248C-119.968 723 -125.044 724.694 -125.955 722.091C-126.988 719.136 -128.437 710.484 -132.376 710.155C-132.376 708.241 -132.393 708.024 -132.733 706.547C-133.96 706.285 -133.96 706.585 -134.497 706.417C-136.38 705.831 -135.957 701.918 -135.957 700.053C-140.12 698.041 -139.181 699.588 -139.181 693.919C-140.224 693.364 -140.807 692.871 -142.405 692.836C-142.405 691.051 -142.862 689.476 -143.341 688.009C-144.301 685.064 -144.991 681.651 -146.617 679.042C-147.587 677.484 -148.697 677.019 -149.13 675.44L-150.42 670.965C-151.491 667.878 -152.59 665.415 -154.829 663.141C-156.057 661.894 -155.398 663.113 -155.727 661.16C-156.396 657.202 -157.783 652.78 -158.799 649.098C-159.707 645.804 -160.744 642.996 -161.787 639.841L-166.755 626.445C-167.393 624.989 -168.523 623.776 -168.967 622.536C-169.625 620.702 -170.412 601.361 -174.021 594.79C-174.614 593.711 -175.089 593.529 -175.404 592.935C-176.222 591.395 -175.81 584.045 -176.164 581.429C-177.162 574.048 -177.394 566.635 -178.212 559.317C-178.826 553.85 -179.412 545.135 -181.617 540.01C-182.22 538.606 -182.154 540.217 -182.154 536.944C-182.154 526.359 -181.755 516.568 -181.45 506.26C-181.398 504.534 -181.162 504.611 -181.079 503.025C-181.01 501.74 -181.131 500.335 -181.093 499.043L-180.008 484.26C-179.672 478.748 -178.861 468.348 -176.784 464.052C-176.247 462.938 -175.779 462.836 -175.689 461.184C-175.612 459.755 -175.779 458.819 -175.557 457.348C-175.21 455.026 -175.155 452.336 -174.961 450.009C-174.597 445.639 -173.997 440.477 -172.988 436.48C-170.364 426.06 -169.754 433.445 -168.655 424.97C-167.667 417.362 -164.789 398.681 -160.081 393.553C-158.643 391.984 -159.125 390.315 -158.674 388.118C-156.043 375.336 -153.176 377.324 -152.548 374.802C-152.028 372.692 -152.919 369.485 -151.99 367.428C-151.55 366.453 -151.987 367.04 -150.974 366.649C-149.439 366.055 -149.588 367.145 -148.998 362.502C-148.402 357.801 -148.53 360.172 -145.507 354.112C-143.057 349.2 -140.893 344.003 -139.437 338.574C-138.63 335.57 -137.555 337.421 -136.227 335.65C-135.638 334.861 -136.012 331.958 -135.6 330.173C-129.866 328.828 -133.239 328.535 -129.304 322.443C-128.323 320.92 -128.562 320.962 -127.113 319.959C-126.063 319.233 -126.635 320.225 -126.08 318.834C-125.314 316.903 -125.428 315.429 -124.388 313.322C-123.657 311.838 -123.584 311.684 -122.457 310.577C-121.033 309.179 -121.116 309.672 -119.486 308.882C-119.486 307.234 -119.712 304.827 -118.786 303.451C-117.729 301.882 -118.599 303.136 -117.587 303.021C-115.94 302.832 -116.328 303.003 -116.023 300.824C-115.833 299.451 -115.902 298.036 -115.902 296.614C-113.378 295.395 -110.931 294.274 -109.735 291.284C-109.034 289.537 -110.081 290.271 -108.691 289.446C-105.692 287.668 -106.233 290.466 -106.233 283.987C-105.162 283.417 -104.278 282.939 -102.652 282.904C-102.427 280.155 -99.3657 276.281 -96.5646 276.047C-96.5646 268.48 -95.2334 269.752 -93.3405 269.913C-93.0563 268.683 -92.6576 267.761 -92.6264 266.304C-89.4925 266.042 -86.2546 262.78 -86.1818 259.447C-78.614 257.669 -80.1393 246.617 -72.9321 246.456C-72.8246 241.527 -67.1877 240.514 -66.2899 239.075C-65.0314 237.06 -64.6224 234.859 -61.1904 233.385C-56.909 231.547 -61.128 232.634 -57.6994 230.045C-55.5084 228.39 -53.0471 227.492 -50.7001 226.273C-49.0084 225.392 -49.5353 223.768 -47.7846 221.994C-46.6025 220.795 -45.3822 219.44 -43.2086 219.391C-43.0942 214.288 -36.8264 212.96 -36.4034 212.534C-35.1866 209.981 -37.18 209.666 -32.8085 209.663C-30.2084 209.659 -29.9554 208.692 -29.9554 206.04C-28.2116 205.894 -26.3535 204.482 -25.3759 203.438C-23.8817 201.845 -24.1244 199.889 -21.8918 199.368C-18.1096 198.485 -13.5856 197.496 -13.4816 192.689C-9.17596 192.689 -3.4559 190.545 -3.09537 186.192C-0.942535 186.192 1.95563 185.211 3.29724 184.337C5.24899 183.062 6.34097 181.899 6.93033 179.339C10.553 179.339 19.1297 176.921 19.4625 172.845C22.5513 172.845 25.0681 171.867 26.9783 170.676C30.7015 168.356 28.0356 166.48 32.1332 165.764C36.0749 165.073 43.9443 163.343 45.9654 159.494C51.0129 159.494 58.6813 156.86 59.5757 153C62.7893 153 67.2198 152.249 69.799 151.393C73.1964 150.265 74.9539 149.193 76.4065 146.143C81.8943 146.143 87.8535 144.865 92.8387 142.853C94.9048 142.018 95.4318 141.609 96.4614 139.646C100.14 139.646 108.889 141.117 108.993 136.397C111.919 136.397 118.187 137.078 120.683 135.545C122.087 134.682 121.99 134.078 122.604 132.789C124.441 133.676 129.672 133.156 132.286 133.163C135.659 133.17 138.447 132.272 139.078 129.54C149.023 129.54 178.23 126.47 187.216 124.639C190.499 123.972 192.395 123.046 195.661 123.046C198.767 123.046 203.43 122.767 206.352 123.099C209.712 123.48 213.525 123.123 217.13 123.427L247.939 125.223C252.56 125.481 263.05 126.229 266.864 128.167C268.576 129.041 267.904 129.481 271.204 129.17C274.792 128.835 279.531 128.681 283.268 129.324C285.618 129.729 287.203 130.256 287.705 132.429C291.217 132.429 295.606 133.337 298.806 133.872C305.711 135.028 312.87 136.331 319.266 138.518C320.996 139.108 322.383 139.436 324.085 140.156C324.934 140.516 325.489 140.771 326.283 141.19C327.43 141.794 327.479 141.641 327.812 142.895C331.767 142.895 344.289 144.617 347.118 148.34C348.782 150.531 348.577 149.339 351.6 149.958C356.051 150.866 362.035 151.854 364.34 156.245C372.175 156.245 377.985 163.738 389.443 165.956C391.665 166.386 391.259 168.049 393.128 169.457C395.388 171.158 399.881 172.845 403.732 172.845C404.45 175.954 408.61 177.494 411.3 178.57C417.142 180.904 411.657 181.56 422.57 185.256C427.375 186.884 425.139 184.882 427.972 188.837C430.135 191.855 432.974 191.945 434.205 193.741C436.063 196.455 439.679 197.709 442.601 198.995C444.73 199.931 443.229 200.231 444.251 202.023C446.099 205.268 449.933 200.116 449.933 206.04C451.833 206.082 453.279 207.078 454.332 208.105C458.558 212.216 454.572 211.172 459.13 213.376C460.222 213.903 460.333 214.148 461.138 214.962C462.289 216.132 463.495 217.278 463.543 219.395C467.825 219.395 472.044 221.836 473.122 224.9C474.096 227.67 475.06 226.168 477.254 228.316C478.502 229.535 479.969 230.877 480.017 233.109C485.519 234.401 492.133 241.946 495.728 246.505C496.956 248.063 499.16 250.582 499.354 252.953C499.933 252.967 503.047 253.369 503.386 253.582C505.404 254.833 501.986 256.202 515.111 256.202H580.649C595.275 256.202 608.753 255.807 623.268 255.842L639.038 255.496C641.108 255.472 641.739 255.102 644.03 255.112C650.534 255.14 659.204 254.91 664.453 253.677C663.222 251.986 660.254 253.959 657.505 245.88C655.658 240.441 656.375 239.714 654.392 238.914C652.891 238.307 652.434 238.066 651.491 236.784C650.291 235.152 649.109 231.823 649.05 229.141C646.589 229.085 645.798 228.121 644.744 226.622C642.644 223.632 641.063 217.7 637.516 216.223C634.577 215 636.473 216.069 633.419 209.886C631.422 205.845 630.274 207.682 628.635 203.882C628.139 202.736 627.976 202.662 627.127 201.793C625.983 200.629 624.558 199.358 622.547 199.19C622.433 197.814 620.97 194.443 620.394 193.423C619.507 191.851 618.3 189.633 616.103 189.448C615.846 186.335 612.417 182.853 609.297 182.591C609.259 180.946 608.899 180.477 608.133 179.433C607.464 178.518 607.009 177.809 606.143 177.11C602.34 174.043 603.612 177.641 602.413 172.209C601.976 170.242 600.735 167.951 599.078 166.91C598.162 166.334 596.901 166.306 596.231 165.446C594.179 162.806 595.552 161.726 591.118 159.773C589.076 158.872 589.763 158.17 588.282 156.134C587.551 155.131 587.131 154.705 586.133 153.968C585.343 153.388 583.703 152.7 583.38 152.41C582.708 151.802 582.576 150.433 582.018 149.451C581.072 147.788 578.915 146.147 576.343 146.147C576.294 143.943 575.154 142.482 573.698 141.235C573.531 141.092 572.394 140.25 572.252 140.166C570.307 139.014 570.377 140.194 569.472 137.917C568.148 134.577 564.643 132.45 561.644 130.648C560.417 129.91 559.828 129.509 558.632 128.629C557.387 127.71 556.801 127.441 556.645 125.579C554.718 125.534 553.331 124.451 552.326 123.438C551.161 122.264 550.568 119.976 549.733 119.193C548.994 118.498 548.623 118.82 547.476 118.222C545.278 117.077 543.101 115.026 543.038 112.228C540.497 112.228 538.969 111.802 537.173 110.922C532.406 108.588 535.654 106.775 531.74 105.21C528.541 103.928 527.615 102.199 526.208 99.2406C514.594 99.2406 525.209 95.6321 516.539 95.6321C515.821 92.5267 509.605 89.2047 506.51 89.1384C506.139 84.6462 498.62 83.6925 496.9 82.2219C496.845 82.173 496.772 82.0927 496.723 82.0403L495.517 80.3705C492.917 77.5376 488.694 77.1603 487.02 75.5779C484.721 73.4087 486.805 72.6577 479.164 70.1426C477.112 69.4649 475.608 69.409 473.562 68.9305C473.462 64.3684 468.338 62.4332 463.533 62.4332C463.186 58.2274 455.549 56.6171 452.096 55.915L451.517 55.7752C449.167 55.122 450.453 53.0576 444.861 50.9337L438.646 49.2605C436.534 48.733 438.046 49.5749 436.995 48.0379C435.456 45.7918 433.196 44.9674 430.273 43.9823L421.274 41.8655C419.263 40.8245 421.312 39.7591 411.397 35.9376C407.612 34.4775 403.58 33.4819 399.895 31.648C398.931 31.1694 398.269 30.6874 397.596 29.9957C396.619 28.9862 397.908 29.7477 396.66 29.1364C394.303 27.9802 380.485 27.9068 377.58 22.3772C372.952 22.3772 363.508 20.4943 359.584 18.1365C356.963 16.5611 358.735 15.6389 354.661 15.5166C352.325 15.4467 350.186 15.0695 347.96 14.6922C343.883 14.0076 339.602 13.4067 335.542 12.0479C332.918 11.1711 332.197 11.2549 331.022 9.02282C324.147 9.02282 307.871 6.95138 301.343 4.6459C296.636 2.98316 299.714 1.46014 290.097 2.78754C286.374 3.30103 281.462 2.9587 277.909 2.27404C276.595 2.02254 276.806 2.10288 275.718 1.59637C274.678 1.11082 274.379 1.1248 274.081 0C267.994 0 261.906 0 255.815 0L224.289 0.349316C222.219 0.352809 221.848 0.677672 220.015 0.733563L206.023 0.709111C204.033 0.733563 203.742 1.07589 201.755 1.09685C197.249 1.15274 192.635 0.838358 188.131 1.08288L165.941 1.81993C158.654 1.83041 150.493 1.55445 143.349 2.14829C137.32 2.65131 139.019 1.77802 130.515 3.29055L115.504 6.56713C110.671 7.7059 105.631 8.87262 100.75 10.1057L57.2114 21.8078C49.7233 23.9561 40.4117 26.8414 33.1109 29.6394C32.0951 30.0272 30.9719 30.5861 29.8418 31.0367C20.7001 34.6661 26.2329 35.1621 20.1801 35.3752C18.7587 35.4241 17.4552 35.8014 16.235 36.0878L16.2384 36.0634Z" stroke="#FF1786" strokeWidth="10" mask="url(#path-1-inside-1_1_347)"/>
</svg>
