<?xml version="1.0" encoding="UTF-8"?>
<!DOCTYPE svg PUBLIC "-//W3C//DTD SVG 1.1//EN" "http://www.w3.org/Graphics/SVG/1.1/DTD/svg11.dtd">
<!-- Creator: CorelDRAW -->
<svg xmlns="http://www.w3.org/2000/svg" xml:space="preserve" width="75.8443mm" height="75.9152mm" version="1.1" style="shape-rendering:geometricPrecision; text-rendering:geometricPrecision; image-rendering:optimizeQuality; fill-rule:evenodd; clip-rule:evenodd"
viewBox="0 0 297.49 297.76"
 xmlns:xlink="http://www.w3.org/1999/xlink"
 xmlns:xodm="http://www.corel.com/coreldraw/odm/2003">
 <defs>
  <style type="text/css">
   <![CDATA[
    .fil0 {fill:#FF1786}
   ]]>
  </style>
 </defs>
 <g id="Layer_x0020_1">
  <metadata id="CorelCorpID_0Corel-Layer"/>
  <path class="fil0" d="M233.84 127.8l1.02 0.01c14.49,0.12 28.99,0.24 43.48,0.36l19.14 0.16 -1.19 19.13c-2.83,45.6 -18.69,89.82 -54.93,119.42 -14.7,12.01 -31.85,20.59 -50.13,25.61 -18.17,4.98 -37.28,6.41 -56,4.41 -37.26,-3.99 -72.96,-21.17 -98.28,-48.94 -14.07,-15.43 -24.4,-33.49 -30.5,-53.47 -6.09,-19.96 -7.68,-40.97 -5.57,-61.69 3.24,-31.81 14.82,-61.68 36.31,-85.65 19.12,-21.34 44.33,-35.93 72.09,-42.76 27.97,-6.87 57.79,-5.6 85.13,3.39 30,9.86 62.67,32.79 82.3,57.5l11.26 14.18 -48.3 0 -0.58 -0.58c-14.78,-14.77 -36.48,-29.2 -56.28,-35.84 -20.5,-6.87 -42.73,-8.18 -63.82,-3.29 -20.86,4.83 -39.77,15.54 -54.13,31.5 -16.26,18.07 -24.85,40.72 -27.3,64.72 -1.6,15.67 -0.53,31.52 3.98,46.64 4.51,15.09 12.22,28.65 22.83,40.28 19.35,21.22 46.91,34.31 75.35,37.35 13.81,1.48 27.92,0.54 41.35,-3.02 13.58,-3.6 26.33,-9.84 37.23,-18.75 22.2,-18.13 33.88,-44.18 38.76,-71.93l0.3 -1.68 -94.56 -0.78c-5.21,5.19 -12.22,8.14 -19.61,8.14 -15.14,0 -27.2,-12.29 -26.94,-27.42 0.26,-15.11 12.72,-27.35 27.83,-27.35 8.1,0 15.7,3.56 20.82,9.78l28.69 0.24 -1.37 -2.32c-1.76,-2.97 -3.75,-5.81 -5.98,-8.45 -5.61,-6.66 -12.58,-11.95 -20.7,-15.16 -8.73,-3.45 -18.02,-4.22 -27.28,-2.86 -11.76,1.73 -22.85,6.98 -30.65,16.1 -7.91,9.25 -11.1,20.96 -10.17,32.99 1.38,17.73 9.54,32.69 25.43,41.29 12.52,6.78 29.04,8.71 42.47,3.51l16.76 -6.49 23.14 27.86 -26.98 12.95 -0.07 0.03c-23.51,9.11 -51.23,6.55 -73.26,-5.39 -26.74,-14.48 -41.9,-40.31 -44.24,-70.33 -1.67,-21.49 4.46,-42.47 18.29,-59.13 13.75,-16.57 33.29,-26.74 54.48,-29.86 16.36,-2.41 32.84,-0.69 48.09,5.81 14.49,6.18 26.8,16.21 36.27,28.75 6.85,9.08 12.08,19.3 15.7,30.07l0.32 0.96zm-31.75 85.46l-20.59 -24.79 -15.42 5.97c-14.06,5.45 -31.2,3.39 -44.14,-3.62 -16.43,-8.9 -25.03,-24.42 -26.47,-42.89 -0.97,-12.49 2.34,-24.74 10.64,-34.44 8.15,-9.52 19.68,-14.98 31.88,-16.78 9.65,-1.42 19.28,-0.59 28.3,2.98 8.44,3.34 15.67,8.82 21.49,15.73 2.29,2.73 4.35,5.65 6.17,8.72l3.17 5.35 -33.18 -0.28c-4.54,-5.95 -11.72,-9.77 -19.85,-9.77 -14.02,0 -25.59,11.37 -25.84,25.39 -0.25,14.02 10.92,25.39 24.95,25.39 7.36,0 14.05,-3.14 18.78,-8.14l97.76 0.81 -0.7 4c-4.95,28.12 -16.81,54.63 -39.46,73.13 -11.15,9.11 -24.15,15.47 -37.98,19.13 -13.71,3.63 -28.07,4.57 -42.07,3.07 -29.04,-3.11 -57,-16.49 -76.61,-37.99 -22.26,-24.41 -30.67,-55.57 -27.32,-88.47 2.48,-24.33 11.2,-47.4 27.8,-65.85 14.68,-16.31 33.97,-27.2 55.16,-32.11 21.56,-4.99 44.15,-3.61 64.91,3.35 19.32,6.48 41.54,20.82 57.05,36.32l43.35 0 -8.7 -10.95c-19.3,-24.3 -51.73,-47.11 -81.36,-56.85 -26.9,-8.84 -56.26,-10.17 -84.04,-3.35 -27.3,6.71 -52.17,21.05 -71.08,42.15 -21.27,23.74 -32.62,53.25 -35.81,84.52 -4.29,42.16 7.1,82.4 35.56,113.62 24.91,27.31 60.11,44.35 97.02,48.3 18.41,1.97 37.28,0.58 55.26,-4.35 17.98,-4.93 34.87,-13.37 49.4,-25.23 35.95,-29.36 51.43,-73.23 54.2,-118l1.06 -17.03 -17.04 -0.14c-14.49,-0.12 -28.99,-0.24 -43.48,-0.36l-2.44 -0.02 -0.77 -2.3c-3.56,-10.59 -8.69,-20.61 -15.4,-29.5 -9.25,-12.26 -21.28,-22.08 -35.46,-28.12 -14.85,-6.33 -30.94,-8.04 -47.02,-5.67 -20.63,3.04 -39.76,12.92 -53.24,29.16 -13.56,16.34 -19.46,36.84 -17.83,57.7 2.29,29.46 17.15,54.63 43.2,68.74 21.36,11.57 48.47,14.24 71.6,5.28l24.61 -11.81z"/>
 </g>
</svg>
