<?xml version="1.0" encoding="UTF-8"?>
<!DOCTYPE svg PUBLIC "-//W3C//DTD SVG 1.1//EN" "http://www.w3.org/Graphics/SVG/1.1/DTD/svg11.dtd">
<!-- Creator: CorelDRAW -->
<svg xmlns="http://www.w3.org/2000/svg" xml:space="preserve" width="74.7971mm" height="74.9012mm" version="1.1" style="shape-rendering:geometricPrecision; text-rendering:geometricPrecision; image-rendering:optimizeQuality; fill-rule:evenodd; clip-rule:evenodd"
viewBox="0 0 319.74 320.19"
 xmlns:xlink="http://www.w3.org/1999/xlink"
 xmlns:xodm="http://www.corel.com/coreldraw/odm/2003">
 <defs>
  <style type="text/css">
   <![CDATA[
    .fil0 {fill:#FF1786}
   ]]>
  </style>
 </defs>
 <g id="Layer_x0020_1">
  <metadata id="CorelCorpID_0Corel-Layer"/>
  <path class="fil0" d="M218.08 230.25l-22.44 -27.02 -16.81 6.51c-15.33,5.94 -34,3.69 -48.1,-3.95 -17.91,-9.7 -27.28,-26.61 -28.85,-46.74 -1.06,-13.62 2.55,-26.96 11.59,-37.54 8.88,-10.38 21.45,-16.33 34.74,-18.28 10.52,-1.55 21.01,-0.65 30.85,3.24 9.2,3.64 17.08,9.61 23.42,17.14 2.5,2.97 4.74,6.16 6.72,9.5l3.45 5.84 -36.16 -0.3c-4.95,-6.48 -12.77,-10.65 -21.63,-10.65 -15.28,0 -27.89,12.39 -28.16,27.67 -0.27,15.28 11.91,27.67 27.19,27.67 8.03,0 15.31,-3.42 20.46,-8.88l106.55 0.88 -0.77 4.36c-5.39,30.65 -18.32,59.54 -43.01,79.7 -12.15,9.93 -26.32,16.86 -41.4,20.85 -14.94,3.95 -30.6,4.98 -45.85,3.35 -31.65,-3.39 -62.13,-17.97 -83.5,-41.41 -24.26,-26.61 -33.43,-60.57 -29.78,-96.42 2.7,-26.51 12.2,-51.66 30.3,-71.76 16,-17.77 37.02,-29.64 60.12,-34.99 23.49,-5.44 48.12,-3.94 70.74,3.65 21.05,7.06 45.27,22.69 62.18,39.58l47.25 0 -9.48 -11.93c-21.03,-26.48 -56.38,-51.35 -88.67,-61.96 -29.31,-9.63 -61.31,-11.09 -91.59,-3.65 -29.75,7.31 -56.86,22.94 -77.47,45.94 -23.19,25.87 -35.56,58.03 -39.03,92.12 -4.68,45.94 7.73,89.8 38.76,123.82 27.14,29.77 65.51,48.33 105.74,52.64 20.07,2.15 40.63,0.64 60.23,-4.74 19.59,-5.38 38.01,-14.57 53.84,-27.5 39.18,-32 56.05,-79.81 59.08,-128.6l1.15 -18.56 -18.57 -0.15c-15.79,-0.13 -31.59,-0.26 -47.38,-0.39l-2.66 -0.02 -0.84 -2.51c-3.88,-11.54 -9.47,-22.46 -16.79,-32.15 -10.08,-13.36 -23.19,-24.06 -38.64,-30.65 -16.19,-6.9 -33.72,-8.76 -51.24,-6.18 -22.48,3.31 -43.33,14.08 -58.02,31.78 -14.78,17.81 -21.21,40.15 -19.44,62.89 2.5,32.1 18.69,59.53 47.08,74.91 23.28,12.61 52.82,15.52 78.03,5.76l26.82 -12.87z"/>
 </g>
</svg>
