<svg width="71" height="70" viewBox="0 0 71 70" fill="none" xmlns="http://www.w3.org/2000/svg">
<path d="M64.8376 64.1761H6.16235C3.03514 64.1761 0.5 61.8689 0.5 59.023V14.5593C0.5 11.7134 3.03514 9.40625 6.16235 9.40625H64.8376C67.9649 9.40625 70.5 11.7134 70.5 14.5593V59.023C70.5 61.8689 67.9649 64.1761 64.8376 64.1761Z" fill="#F8D57E"/>
<path d="M63.5269 62.958H7.46855C4.48076 62.958 2.05859 60.7537 2.05859 58.0347V15.5542C2.05859 12.8352 4.48061 10.6309 7.46855 10.6309H63.5267C66.5145 10.6309 68.9367 12.835 68.9367 15.5542V58.0348C68.9368 60.7539 66.5147 62.958 63.5269 62.958Z" fill="#E1C379"/>
<path d="M66.7036 23.796L52.5901 1.54965C51.6501 0.067757 49.5678 -0.440016 47.9394 0.415706L3.44141 23.796H66.7036Z" fill="#009379"/>
<path fill-rule="evenodd" clip-rule="evenodd" d="M70.5 24.8179V35.3488V41.6907V59.0245C70.5 61.8705 67.9649 64.1776 64.8376 64.1776H6.1625C3.03514 64.1776 0.5 61.8703 0.5 59.0244V41.6907V35.3488V24.8179C0.5 22.6883 2.39696 20.9619 4.73711 20.9619H66.2629C68.603 20.9619 70.5 22.6883 70.5 24.8179Z" fill="#FF6250"/>
<path d="M55.1648 69.9614L6.02624 64.7677C2.8762 64.4347 0.5 62.0067 0.5 59.1207V14.1826C0.5 15.1484 1.29517 15.9608 2.34904 16.0722L56.6059 21.807C59.756 22.1401 62.1322 24.568 62.1322 27.454V64.3145C62.1322 67.714 58.8753 70.3538 55.1648 69.9614Z" fill="#F8D57E"/>
<path d="M4.90417 21.1901C4.86301 21.1901 4.82125 21.188 4.77933 21.1839L2.53067 20.9588C1.90962 20.8966 1.46148 20.3883 1.52984 19.8232C1.59819 19.2582 2.1572 18.8508 2.77765 18.9124L5.02631 19.1375C5.64736 19.1997 6.0955 19.708 6.02715 20.273C5.96345 20.8001 5.4734 21.1901 4.90417 21.1901Z" fill="#F8D57E"/>
<path d="M51.1091 66.5614C51.0616 66.5614 51.0132 66.5585 50.9649 66.5531L46.5945 66.0474C45.975 65.9757 45.5363 65.4603 45.6152 64.8962C45.694 64.3324 46.2603 63.9355 46.8801 64.0049L51.2505 64.5106C51.87 64.5823 52.3088 65.0977 52.2298 65.6618C52.157 66.1816 51.6702 66.5614 51.1091 66.5614ZM55.4108 66.0519C54.9866 66.0519 54.5796 65.8335 54.3868 65.4608C54.1205 64.9466 54.3628 64.3332 54.928 64.091C56.0756 63.5989 56.9386 62.7826 57.296 61.8513C57.502 61.3148 58.1474 61.0318 58.7369 61.2189C59.3266 61.4063 59.6378 61.9934 59.4319 62.5301C58.8675 64.0009 57.6105 65.2168 55.8921 65.9534C55.7364 66.0201 55.5725 66.0519 55.4108 66.0519ZM42.3685 65.55C42.3211 65.55 42.2727 65.5471 42.2243 65.5416L37.8539 65.0359C37.2344 64.9643 36.7956 64.4488 36.8746 63.8847C36.9535 63.3209 37.5197 62.9239 38.1395 62.9935L42.5099 63.4992C43.1294 63.5708 43.5683 64.0863 43.4892 64.6504C43.4164 65.17 42.9293 65.55 42.3685 65.55ZM33.628 64.5384C33.5805 64.5384 33.5323 64.5355 33.4837 64.53L29.1134 64.0243C28.4938 63.9527 28.055 63.4373 28.134 62.8732C28.2129 62.3093 28.7793 61.9104 29.399 61.9819L33.7693 62.4876C34.3889 62.5592 34.8277 63.0747 34.7487 63.6388C34.6758 64.1584 34.1888 64.5384 33.628 64.5384ZM24.8871 63.5268C24.8396 63.5268 24.7914 63.5239 24.7429 63.5185L20.3723 63.0126C19.7526 62.9408 19.314 62.4255 19.393 61.8614C19.4719 61.2975 20.0384 60.9004 20.6579 60.9702L25.0284 61.476C25.6482 61.5478 26.0868 62.0631 26.0078 62.6272C25.9352 63.1471 25.4482 63.5268 24.8871 63.5268ZM16.1465 62.5152C16.099 62.5152 16.0508 62.5124 16.0023 62.5069L11.6318 62.001C11.0121 61.9292 10.5734 61.414 10.6524 60.8499C10.7313 60.2859 11.2978 59.8887 11.9174 59.9586L16.2879 60.4644C16.9076 60.5362 17.3463 61.0515 17.2672 61.6156C17.1945 62.1356 16.7076 62.5152 16.1465 62.5152ZM58.6178 59.2374C57.993 59.2374 57.4867 58.7767 57.4867 58.208V54.1988C57.4867 53.6301 57.993 53.1694 58.6178 53.1694C59.2426 53.1694 59.7489 53.6301 59.7489 54.1988V58.208C59.749 58.7767 59.2427 59.2374 58.6178 59.2374ZM58.6178 51.219C57.993 51.219 57.4867 50.7582 57.4867 50.1896V46.1803C57.4867 45.6117 57.993 45.151 58.6178 45.151C59.2426 45.151 59.7489 45.6117 59.7489 46.1803V50.1896C59.749 50.7581 59.2427 51.219 58.6178 51.219ZM58.6178 43.2004C57.993 43.2004 57.4867 42.7397 57.4867 42.1711V38.1618C57.4867 37.5932 57.993 37.1324 58.6178 37.1324C59.2426 37.1324 59.7489 37.5932 59.7489 38.1618V42.1711C59.749 42.7395 59.2427 43.2004 58.6178 43.2004ZM58.6178 35.1819C57.993 35.1819 57.4867 34.7211 57.4867 34.1525V30.1432C57.4867 29.5746 57.993 29.1139 58.6178 29.1139C59.2426 29.1139 59.7489 29.5746 59.7489 30.1432V34.1525C59.749 34.721 59.2427 35.1819 58.6178 35.1819ZM57.0358 27.5742C56.7566 27.5742 56.4767 27.4805 56.2581 27.292C55.4197 26.569 54.2561 26.1084 52.9814 25.9948L52.9515 25.9919C52.3303 25.9311 51.881 25.4234 51.948 24.8582C52.0148 24.2929 52.5725 23.8838 53.1937 23.945L53.2129 23.9469C54.9747 24.104 56.6125 24.7616 57.8142 25.7975C58.2677 26.1885 58.287 26.8401 57.8573 27.2529C57.6347 27.4663 57.3356 27.5742 57.0358 27.5742ZM48.6946 25.5597C48.6534 25.5597 48.6117 25.5576 48.5697 25.5534L44.1907 25.1153C43.5698 25.0531 43.1215 24.5447 43.1898 23.9797C43.2582 23.4146 43.8172 23.0079 44.4377 23.0689L48.8167 23.507C49.4376 23.5693 49.8859 24.0776 49.8176 24.6426C49.754 25.1695 49.2638 25.5597 48.6946 25.5597ZM39.9366 24.6834C39.8954 24.6834 39.8537 24.6812 39.8118 24.6771L35.4325 24.2389C34.8116 24.1767 34.3633 23.6684 34.4317 23.1033C34.4999 22.5381 35.0598 22.131 35.6795 22.1925L40.0587 22.6307C40.6796 22.6929 41.1279 23.2012 41.0596 23.7663C40.9959 24.2933 40.5058 24.6834 39.9366 24.6834ZM31.1781 23.8071C31.137 23.8071 31.0952 23.805 31.0533 23.8009L26.6742 23.3627C26.0533 23.3005 25.605 22.7921 25.6734 22.2271C25.7416 21.662 26.3003 21.2549 26.9212 21.3163L31.3003 21.7544C31.9212 21.8167 32.3695 22.325 32.3011 22.89C32.2376 23.4169 31.7475 23.8071 31.1781 23.8071ZM22.4198 22.9309C22.3787 22.9309 22.3369 22.9287 22.295 22.9246L17.9159 22.4864C17.2949 22.4242 16.8467 21.9159 16.9151 21.3509C16.9833 20.7859 17.5414 20.3789 18.1629 20.44L22.542 20.8782C23.1629 20.9404 23.6112 21.4487 23.5428 22.0138C23.4794 22.5407 22.9892 22.9309 22.4198 22.9309ZM13.6615 22.0545C13.6204 22.0545 13.5786 22.0524 13.5367 22.0483L9.15763 21.6101C8.53672 21.5479 8.08843 21.0395 8.15679 20.4745C8.22514 19.9096 8.7834 19.5027 9.4046 19.5637L13.7837 20.0018C14.4047 20.0641 14.8529 20.5724 14.7845 21.1374C14.721 21.6643 14.2308 22.0545 13.6615 22.0545Z" fill="#F2F2F7"/>
<path d="M7.39855 61.5101C7.35108 61.5101 7.30301 61.5074 7.25448 61.5018L5.01019 61.2421C4.39049 61.1705 3.95166 60.6551 4.03068 60.0911C4.1094 59.5271 4.67577 59.1282 5.29548 59.1997L7.53977 59.4593C8.15947 59.531 8.5983 60.0464 8.51927 60.6104C8.44656 61.1303 7.95951 61.5101 7.39855 61.5101Z" fill="#F8D57E"/>
<path d="M48.9534 7.66878L41.7141 11.2538C40.7711 11.7207 39.5908 11.4037 39.0776 10.5455C38.5645 9.68729 38.9129 8.61309 39.8559 8.14606L47.0954 4.56116C48.0384 4.09426 49.2187 4.41131 49.7319 5.2695C50.245 6.12754 49.8966 7.20188 48.9534 7.66878Z" fill="white"/>
<path d="M50.8637 51.6673C53.9263 51.6673 56.409 49.4079 56.409 46.6208C56.409 43.8336 53.9263 41.5742 50.8637 41.5742C47.8011 41.5742 45.3184 43.8336 45.3184 46.6208C45.3184 49.4079 47.8011 51.6673 50.8637 51.6673Z" fill="url(#paint0_linear_706_1221)"/>
<path d="M50.8602 50.1013C52.9738 50.1013 54.6872 48.542 54.6872 46.6185C54.6872 44.695 52.9738 43.1357 50.8602 43.1357C48.7466 43.1357 47.0332 44.695 47.0332 46.6185C47.0332 48.542 48.7466 50.1013 50.8602 50.1013Z" fill="url(#paint1_linear_706_1221)"/>
<defs>
<linearGradient id="paint0_linear_706_1221" x1="50.8625" y1="43.4536" x2="50.8625" y2="50.7513" gradientUnits="userSpaceOnUse">
<stop stop-color="#FF4C54"/>
<stop offset="1" stop-color="#BE3F45"/>
</linearGradient>
<linearGradient id="paint1_linear_706_1221" x1="50.859" y1="48.8055" x2="50.859" y2="43.7697" gradientUnits="userSpaceOnUse">
<stop stop-color="#FF4C54"/>
<stop offset="1" stop-color="#BE3F45"/>
</linearGradient>
</defs>
</svg>
