<svg width="71" height="70" viewBox="0 0 71 70" fill="none" xmlns="http://www.w3.org/2000/svg">
<rect x="11.5" y="8" width="59.1111" height="43.5556" rx="8" fill="url(#paint0_linear_706_1213)"/>
<rect x="0.5" y="17" width="61.0714" height="45" rx="8" fill="url(#paint1_linear_706_1213)"/>
<path d="M11.9673 25.9563C11.4353 25.3911 10.6825 25.0361 9.8449 25.0361C8.23406 25.0361 6.92822 26.342 6.92822 27.9528C6.92822 28.7903 7.28308 29.5432 7.84838 30.0752L14.1401 36.3669C14.6721 36.9321 15.425 37.2871 16.2625 37.2871C17.8733 37.2871 19.1792 35.9812 19.1792 34.3704C19.1792 33.5329 18.8242 32.78 18.259 32.248L11.9673 25.9563Z" fill="url(#paint2_linear_706_1213)"/>
<path d="M9.41668 30.8695C11.0275 30.8695 12.3334 29.5637 12.3334 27.9528C12.3334 26.342 11.0275 25.0361 9.41668 25.0361C7.80584 25.0361 6.5 26.342 6.5 27.9528C6.5 29.5637 7.80584 30.8695 9.41668 30.8695Z" fill="#F8D57E"/>
<path d="M20.2177 25.9563C19.6858 25.3911 18.933 25.0361 18.0954 25.0361C16.4845 25.0361 15.1787 26.342 15.1787 27.9528C15.1787 28.7903 15.5336 29.5432 16.0989 30.0752L22.3906 36.3669C22.9226 36.9321 23.6755 37.2871 24.513 37.2871C26.1238 37.2871 27.4296 35.9812 27.4296 34.3704C27.4296 33.5329 27.0747 32.78 26.5095 32.248L20.2177 25.9563Z" fill="url(#paint3_linear_706_1213)"/>
<path d="M18.0954 30.8695C19.7062 30.8695 21.0121 29.5637 21.0121 27.9528C21.0121 26.342 19.7062 25.0361 18.0954 25.0361C16.4846 25.0361 15.1787 26.342 15.1787 27.9528C15.1787 29.5637 16.4846 30.8695 18.0954 30.8695Z" fill="#F8D57E"/>
<path d="M28.4638 25.9563C27.9319 25.3911 27.1791 25.0361 26.3415 25.0361C24.7306 25.0361 23.4248 26.342 23.4248 27.9528C23.4248 28.7903 23.7798 29.5432 24.345 30.0752L30.6367 36.3669C31.1687 36.9321 31.9216 37.2871 32.7591 37.2871C34.3699 37.2871 35.6757 35.9812 35.6757 34.3704C35.6757 33.5329 35.3208 32.78 34.7556 32.248L28.4638 25.9563Z" fill="url(#paint4_linear_706_1213)"/>
<path d="M26.3415 30.8695C27.9523 30.8695 29.2582 29.5637 29.2582 27.9528C29.2582 26.342 27.9523 25.0361 26.3415 25.0361C24.7306 25.0361 23.4248 26.342 23.4248 27.9528C23.4248 29.5637 24.7306 30.8695 26.3415 30.8695Z" fill="#F8D57E"/>
<defs>
<linearGradient id="paint0_linear_706_1213" x1="11.5" y1="8" x2="70.6111" y2="51.5556" gradientUnits="userSpaceOnUse">
<stop stop-color="#A7F4CE"/>
<stop offset="1" stop-color="#7DE5AE"/>
</linearGradient>
<linearGradient id="paint1_linear_706_1213" x1="0.5" y1="17" x2="61.5714" y2="62" gradientUnits="userSpaceOnUse">
<stop stop-color="#3D81FF"/>
<stop offset="1" stop-color="#65E2FD"/>
</linearGradient>
<linearGradient id="paint2_linear_706_1213" x1="16.3331" y1="34.4416" x2="3.71835" y2="21.8272" gradientUnits="userSpaceOnUse">
<stop stop-color="#00A2F3" stop-opacity="0"/>
<stop offset="1" stop-color="#0075CD"/>
</linearGradient>
<linearGradient id="paint3_linear_706_1213" x1="24.583" y1="34.4413" x2="11.9686" y2="21.8269" gradientUnits="userSpaceOnUse">
<stop stop-color="#00A2F3" stop-opacity="0"/>
<stop offset="1" stop-color="#0075CD"/>
</linearGradient>
<linearGradient id="paint4_linear_706_1213" x1="32.8291" y1="34.4414" x2="20.2147" y2="21.827" gradientUnits="userSpaceOnUse">
<stop stop-color="#00A2F3" stop-opacity="0"/>
<stop offset="1" stop-color="#0075CD"/>
</linearGradient>
</defs>
</svg>
